<?xml version="1.0" encoding="us-ascii" standalone="no"?><svg xmlns="http://www.w3.org/2000/svg" xmlns:xlink="http://www.w3.org/1999/xlink" contentStyleType="text/css" height="1225px" preserveAspectRatio="none" style="width:1276px;height:1225px;background:#FFFFFF;" version="1.1" viewBox="0 0 1276 1225" width="1276px" zoomAndPan="magnify"><defs/><g><!--class Entidad--><g id="elem_Entidad"><rect codeLine="1" fill="#F1F1F1" height="113.1875" id="Entidad" rx="2.5" ry="2.5" style="stroke:#181818;stroke-width:0.5;" width="326" x="624" y="353"/><ellipse cx="755.25" cy="369" fill="#ADD1B2" rx="11" ry="11" style="stroke:#181818;stroke-width:1.0;"/><path d="M757.5938,364.6719 C756.6563,364.2344 756.0625,364.0938 755.1875,364.0938 C752.5625,364.0938 750.5625,366.1719 750.5625,368.8906 L750.5625,370.0156 C750.5625,372.5938 752.6719,374.4844 755.5625,374.4844 C756.7813,374.4844 757.9375,374.1875 758.6875,373.6406 C759.2656,373.2344 759.5938,372.7813 759.5938,372.3906 C759.5938,371.9375 759.2031,371.5469 758.7344,371.5469 C758.5156,371.5469 758.3125,371.625 758.125,371.8125 C757.6719,372.2969 757.6719,372.2969 757.4844,372.3906 C757.0625,372.6563 756.375,372.7813 755.6094,372.7813 C753.5625,372.7813 752.2656,371.6875 752.2656,369.9844 L752.2656,368.8906 C752.2656,367.1094 753.5156,365.7969 755.25,365.7969 C755.8281,365.7969 756.4375,365.9531 756.9063,366.2031 C757.3906,366.4844 757.5625,366.7031 757.6563,367.1094 C757.7188,367.5156 757.75,367.6406 757.8906,367.7656 C758.0313,367.9063 758.2656,368.0156 758.4844,368.0156 C758.75,368.0156 759.0156,367.875 759.1875,367.6563 C759.2969,367.5 759.3281,367.3125 759.3281,366.8906 L759.3281,365.4688 C759.3281,365.0313 759.3125,364.9063 759.2188,364.75 C759.0625,364.4844 758.7813,364.3438 758.4844,364.3438 C758.1875,364.3438 757.9844,364.4375 757.7656,364.75 L757.5938,364.6719 Z " fill="#000000"/><text fill="#000000" font-family="sans-serif" font-size="14" lengthAdjust="spacing" textLength="55" x="775.75" y="373.8467">Entidad</text><line style="stroke:#181818;stroke-width:0.5;" x1="625" x2="949" y1="385" y2="385"/><rect fill="none" height="6" style="stroke:#C82930;stroke-width:1.0;" width="6" x="632" y="395.6484"/><text fill="#000000" font-family="sans-serif" font-size="14" lengthAdjust="spacing" textLength="110" x="644" y="401.9951">nombre: String</text><rect fill="none" height="6" style="stroke:#C82930;stroke-width:1.0;" width="6" x="632" y="411.9453"/><text fill="#000000" font-family="sans-serif" font-size="14" lengthAdjust="spacing" textLength="179" x="644" y="418.292">localizacion: Localizacion</text><rect fill="none" height="6" style="stroke:#C82930;stroke-width:1.0;" width="6" x="632" y="428.2422"/><text fill="#000000" font-family="sans-serif" font-size="14" lengthAdjust="spacing" textLength="300" x="644" y="434.5889">establecimientos: List&lt;Establecimiento&gt;</text><rect fill="none" height="6" style="stroke:#C82930;stroke-width:1.0;" width="6" x="632" y="444.5391"/><text fill="#000000" font-family="sans-serif" font-size="14" lengthAdjust="spacing" textLength="185" x="644" y="450.8857">tipoEntidad : TipoEntidad</text><line style="stroke:#181818;stroke-width:0.5;" x1="625" x2="949" y1="458.1875" y2="458.1875"/></g><!--class TipoEntidad--><g id="elem_TipoEntidad"><rect codeLine="8" fill="#F1F1F1" height="96.8906" id="TipoEntidad" rx="2.5" ry="2.5" style="stroke:#181818;stroke-width:0.5;" width="166" x="633" y="534"/><ellipse cx="669.15" cy="550" fill="#EB937F" rx="11" ry="11" style="stroke:#181818;stroke-width:1.0;"/><path d="M667.9469,550.875 L669.4,550.875 L669.4,550.9844 C669.4,551.3906 669.4313,551.5469 669.5094,551.7031 C669.6656,551.9531 669.9469,552.1094 670.2438,552.1094 C670.4938,552.1094 670.7594,551.9688 670.9156,551.75 C671.0406,551.5938 671.0719,551.4375 671.0719,550.9844 L671.0719,549.0625 C671.0719,548.9063 671.0719,548.8594 671.0563,548.7031 C670.9938,548.2344 670.6813,547.9219 670.2281,547.9219 C669.9781,547.9219 669.7125,548.0625 669.5406,548.2813 C669.4313,548.4531 669.4,548.6094 669.4,549.0625 L669.4,549.1875 L667.9469,549.1875 L667.9469,546.7813 L671.9313,546.7813 L671.9313,547.6406 C671.9313,548.0469 671.9625,548.2188 672.0406,548.375 C672.2125,548.625 672.4938,548.7813 672.775,548.7813 C673.0406,548.7813 673.3063,548.6406 673.4781,548.4219 C673.5875,548.25 673.6188,548.1094 673.6188,547.6406 L673.6188,545.0938 L665.9938,545.0938 C665.5563,545.0938 665.4313,545.1094 665.275,545.2031 C665.025,545.3594 664.8688,545.6563 664.8688,545.9375 C664.8688,546.2188 665.0094,546.4688 665.2281,546.6406 C665.3844,546.75 665.5719,546.7813 665.9938,546.7813 L666.2438,546.7813 L666.2438,553.2969 L665.9938,553.2969 C665.5875,553.2969 665.4313,553.3125 665.275,553.4219 C665.025,553.5938 664.8688,553.8594 664.8688,554.1563 C664.8688,554.4219 665.0094,554.6719 665.2281,554.8281 C665.3688,554.9531 665.6031,555 665.9938,555 L673.9938,555 L673.9938,552.4219 C673.9938,551.9844 673.9625,551.8438 673.8844,551.6875 C673.7125,551.4375 673.4313,551.2813 673.15,551.2813 C672.8844,551.2813 672.6188,551.3906 672.4469,551.6406 C672.3375,551.7969 672.3063,551.9375 672.3063,552.4219 L672.3063,553.2969 L667.9469,553.2969 L667.9469,550.875 Z " fill="#000000"/><text fill="#000000" font-family="sans-serif" font-size="14" lengthAdjust="spacing" textLength="87" x="687.85" y="554.8467">TipoEntidad</text><line style="stroke:#181818;stroke-width:0.5;" x1="634" x2="798" y1="566" y2="566"/><text fill="#000000" font-family="sans-serif" font-size="14" lengthAdjust="spacing" textLength="154" x="639" y="582.9951">LINEA_SUBTERRANEO</text><text fill="#000000" font-family="sans-serif" font-size="14" lengthAdjust="spacing" textLength="148" x="639" y="599.292">LINEA_FERROCARRIL</text><text fill="#000000" font-family="sans-serif" font-size="14" lengthAdjust="spacing" textLength="111" x="639" y="615.5889">ORGANIZACION</text><line style="stroke:#181818;stroke-width:0.5;" x1="634" x2="798" y1="622.8906" y2="622.8906"/></g><!--class Municipio--><g id="elem_Municipio"><rect codeLine="15" fill="#F1F1F1" height="96.8906" id="Municipio" rx="2.5" ry="2.5" style="stroke:#181818;stroke-width:0.5;" width="247" x="281.5" y="856"/><ellipse cx="366.75" cy="872" fill="#ADD1B2" rx="11" ry="11" style="stroke:#181818;stroke-width:1.0;"/><path d="M369.0938,867.6719 C368.1563,867.2344 367.5625,867.0938 366.6875,867.0938 C364.0625,867.0938 362.0625,869.1719 362.0625,871.8906 L362.0625,873.0156 C362.0625,875.5938 364.1719,877.4844 367.0625,877.4844 C368.2813,877.4844 369.4375,877.1875 370.1875,876.6406 C370.7656,876.2344 371.0938,875.7813 371.0938,875.3906 C371.0938,874.9375 370.7031,874.5469 370.2344,874.5469 C370.0156,874.5469 369.8125,874.625 369.625,874.8125 C369.1719,875.2969 369.1719,875.2969 368.9844,875.3906 C368.5625,875.6563 367.875,875.7813 367.1094,875.7813 C365.0625,875.7813 363.7656,874.6875 363.7656,872.9844 L363.7656,871.8906 C363.7656,870.1094 365.0156,868.7969 366.75,868.7969 C367.3281,868.7969 367.9375,868.9531 368.4063,869.2031 C368.8906,869.4844 369.0625,869.7031 369.1563,870.1094 C369.2188,870.5156 369.25,870.6406 369.3906,870.7656 C369.5313,870.9063 369.7656,871.0156 369.9844,871.0156 C370.25,871.0156 370.5156,870.875 370.6875,870.6563 C370.7969,870.5 370.8281,870.3125 370.8281,869.8906 L370.8281,868.4688 C370.8281,868.0313 370.8125,867.9063 370.7188,867.75 C370.5625,867.4844 370.2813,867.3438 369.9844,867.3438 C369.6875,867.3438 369.4844,867.4375 369.2656,867.75 L369.0938,867.6719 Z " fill="#000000"/><text fill="#000000" font-family="sans-serif" font-size="14" lengthAdjust="spacing" textLength="68" x="387.25" y="876.8467">Municipio</text><line style="stroke:#181818;stroke-width:0.5;" x1="282.5" x2="527.5" y1="888" y2="888"/><ellipse cx="292.5" cy="901.6484" fill="none" rx="3" ry="3" style="stroke:#038048;stroke-width:1.0;"/><text fill="#000000" font-family="sans-serif" font-size="14" lengthAdjust="spacing" textLength="110" x="301.5" y="904.9951">nombre: String</text><ellipse cx="292.5" cy="917.9453" fill="none" rx="3" ry="3" style="stroke:#038048;stroke-width:1.0;"/><text fill="#000000" font-family="sans-serif" font-size="14" lengthAdjust="spacing" textLength="221" x="301.5" y="921.292">departamento: Departamento</text><ellipse cx="292.5" cy="934.2422" fill="none" rx="3" ry="3" style="stroke:#038048;stroke-width:1.0;"/><text fill="#000000" font-family="sans-serif" font-size="14" lengthAdjust="spacing" textLength="140" x="301.5" y="937.5889">provincia: Provincia</text><line style="stroke:#181818;stroke-width:0.5;" x1="282.5" x2="527.5" y1="944.8906" y2="944.8906"/></g><!--class Departamento--><g id="elem_Departamento"><rect codeLine="21" fill="#F1F1F1" height="80.5938" id="Departamento" rx="2.5" ry="2.5" style="stroke:#181818;stroke-width:0.5;" width="166" x="446" y="1013"/><ellipse cx="473.15" cy="1029" fill="#ADD1B2" rx="11" ry="11" style="stroke:#181818;stroke-width:1.0;"/><path d="M475.4938,1024.6719 C474.5563,1024.2344 473.9625,1024.0938 473.0875,1024.0938 C470.4625,1024.0938 468.4625,1026.1719 468.4625,1028.8906 L468.4625,1030.0156 C468.4625,1032.5938 470.5719,1034.4844 473.4625,1034.4844 C474.6813,1034.4844 475.8375,1034.1875 476.5875,1033.6406 C477.1656,1033.2344 477.4938,1032.7813 477.4938,1032.3906 C477.4938,1031.9375 477.1031,1031.5469 476.6344,1031.5469 C476.4156,1031.5469 476.2125,1031.625 476.025,1031.8125 C475.5719,1032.2969 475.5719,1032.2969 475.3844,1032.3906 C474.9625,1032.6563 474.275,1032.7813 473.5094,1032.7813 C471.4625,1032.7813 470.1656,1031.6875 470.1656,1029.9844 L470.1656,1028.8906 C470.1656,1027.1094 471.4156,1025.7969 473.15,1025.7969 C473.7281,1025.7969 474.3375,1025.9531 474.8063,1026.2031 C475.2906,1026.4844 475.4625,1026.7031 475.5563,1027.1094 C475.6188,1027.5156 475.65,1027.6406 475.7906,1027.7656 C475.9313,1027.9063 476.1656,1028.0156 476.3844,1028.0156 C476.65,1028.0156 476.9156,1027.875 477.0875,1027.6563 C477.1969,1027.5 477.2281,1027.3125 477.2281,1026.8906 L477.2281,1025.4688 C477.2281,1025.0313 477.2125,1024.9063 477.1188,1024.75 C476.9625,1024.4844 476.6813,1024.3438 476.3844,1024.3438 C476.0875,1024.3438 475.8844,1024.4375 475.6656,1024.75 L475.4938,1024.6719 Z " fill="#000000"/><text fill="#000000" font-family="sans-serif" font-size="14" lengthAdjust="spacing" textLength="107" x="489.85" y="1033.8467">Departamento</text><line style="stroke:#181818;stroke-width:0.5;" x1="447" x2="611" y1="1045" y2="1045"/><ellipse cx="457" cy="1058.6484" fill="none" rx="3" ry="3" style="stroke:#038048;stroke-width:1.0;"/><text fill="#000000" font-family="sans-serif" font-size="14" lengthAdjust="spacing" textLength="110" x="466" y="1061.9951">nombre: String</text><ellipse cx="457" cy="1074.9453" fill="none" rx="3" ry="3" style="stroke:#038048;stroke-width:1.0;"/><text fill="#000000" font-family="sans-serif" font-size="14" lengthAdjust="spacing" textLength="140" x="466" y="1078.292">provincia: Provincia</text><line style="stroke:#181818;stroke-width:0.5;" x1="447" x2="611" y1="1085.5938" y2="1085.5938"/></g><!--class Provincia--><g id="elem_Provincia"><rect codeLine="26" fill="#F1F1F1" height="64.2969" id="Provincia" rx="2.5" ry="2.5" style="stroke:#181818;stroke-width:0.5;" width="136" x="461" y="1154"/><ellipse cx="493.55" cy="1170" fill="#ADD1B2" rx="11" ry="11" style="stroke:#181818;stroke-width:1.0;"/><path d="M495.8938,1165.6719 C494.9563,1165.2344 494.3625,1165.0938 493.4875,1165.0938 C490.8625,1165.0938 488.8625,1167.1719 488.8625,1169.8906 L488.8625,1171.0156 C488.8625,1173.5938 490.9719,1175.4844 493.8625,1175.4844 C495.0813,1175.4844 496.2375,1175.1875 496.9875,1174.6406 C497.5656,1174.2344 497.8938,1173.7813 497.8938,1173.3906 C497.8938,1172.9375 497.5031,1172.5469 497.0344,1172.5469 C496.8156,1172.5469 496.6125,1172.625 496.425,1172.8125 C495.9719,1173.2969 495.9719,1173.2969 495.7844,1173.3906 C495.3625,1173.6563 494.675,1173.7813 493.9094,1173.7813 C491.8625,1173.7813 490.5656,1172.6875 490.5656,1170.9844 L490.5656,1169.8906 C490.5656,1168.1094 491.8156,1166.7969 493.55,1166.7969 C494.1281,1166.7969 494.7375,1166.9531 495.2063,1167.2031 C495.6906,1167.4844 495.8625,1167.7031 495.9563,1168.1094 C496.0188,1168.5156 496.05,1168.6406 496.1906,1168.7656 C496.3313,1168.9063 496.5656,1169.0156 496.7844,1169.0156 C497.05,1169.0156 497.3156,1168.875 497.4875,1168.6563 C497.5969,1168.5 497.6281,1168.3125 497.6281,1167.8906 L497.6281,1166.4688 C497.6281,1166.0313 497.6125,1165.9063 497.5188,1165.75 C497.3625,1165.4844 497.0813,1165.3438 496.7844,1165.3438 C496.4875,1165.3438 496.2844,1165.4375 496.0656,1165.75 L495.8938,1165.6719 Z " fill="#000000"/><text fill="#000000" font-family="sans-serif" font-size="14" lengthAdjust="spacing" textLength="65" x="511.45" y="1174.8467">Provincia</text><line style="stroke:#181818;stroke-width:0.5;" x1="462" x2="596" y1="1186" y2="1186"/><ellipse cx="472" cy="1199.6484" fill="none" rx="3" ry="3" style="stroke:#038048;stroke-width:1.0;"/><text fill="#000000" font-family="sans-serif" font-size="14" lengthAdjust="spacing" textLength="110" x="481" y="1202.9951">nombre: String</text><line style="stroke:#181818;stroke-width:0.5;" x1="462" x2="596" y1="1210.2969" y2="1210.2969"/></g><!--class Establecimiento--><g id="elem_Establecimiento"><rect codeLine="30" fill="#F1F1F1" height="113.1875" id="Establecimiento" rx="2.5" ry="2.5" style="stroke:#181818;stroke-width:0.5;" width="215" x="834.5" y="526"/><ellipse cx="878.75" cy="542" fill="#ADD1B2" rx="11" ry="11" style="stroke:#181818;stroke-width:1.0;"/><path d="M881.0938,537.6719 C880.1563,537.2344 879.5625,537.0938 878.6875,537.0938 C876.0625,537.0938 874.0625,539.1719 874.0625,541.8906 L874.0625,543.0156 C874.0625,545.5938 876.1719,547.4844 879.0625,547.4844 C880.2813,547.4844 881.4375,547.1875 882.1875,546.6406 C882.7656,546.2344 883.0938,545.7813 883.0938,545.3906 C883.0938,544.9375 882.7031,544.5469 882.2344,544.5469 C882.0156,544.5469 881.8125,544.625 881.625,544.8125 C881.1719,545.2969 881.1719,545.2969 880.9844,545.3906 C880.5625,545.6563 879.875,545.7813 879.1094,545.7813 C877.0625,545.7813 875.7656,544.6875 875.7656,542.9844 L875.7656,541.8906 C875.7656,540.1094 877.0156,538.7969 878.75,538.7969 C879.3281,538.7969 879.9375,538.9531 880.4063,539.2031 C880.8906,539.4844 881.0625,539.7031 881.1563,540.1094 C881.2188,540.5156 881.25,540.6406 881.3906,540.7656 C881.5313,540.9063 881.7656,541.0156 881.9844,541.0156 C882.25,541.0156 882.5156,540.875 882.6875,540.6563 C882.7969,540.5 882.8281,540.3125 882.8281,539.8906 L882.8281,538.4688 C882.8281,538.0313 882.8125,537.9063 882.7188,537.75 C882.5625,537.4844 882.2813,537.3438 881.9844,537.3438 C881.6875,537.3438 881.4844,537.4375 881.2656,537.75 L881.0938,537.6719 Z " fill="#000000"/><text fill="#000000" font-family="sans-serif" font-size="14" lengthAdjust="spacing" textLength="118" x="899.25" y="546.8467">Establecimiento</text><line style="stroke:#181818;stroke-width:0.5;" x1="835.5" x2="1048.5" y1="558" y2="558"/><rect fill="none" height="6" style="stroke:#C82930;stroke-width:1.0;" width="6" x="842.5" y="568.6484"/><text fill="#000000" font-family="sans-serif" font-size="14" lengthAdjust="spacing" textLength="110" x="854.5" y="574.9951">nombre: String</text><rect fill="none" height="6" style="stroke:#C82930;stroke-width:1.0;" width="6" x="842.5" y="584.9453"/><text fill="#000000" font-family="sans-serif" font-size="14" lengthAdjust="spacing" textLength="189" x="854.5" y="591.292">tipo: TipoEstablecimiento</text><rect fill="none" height="6" style="stroke:#C82930;stroke-width:1.0;" width="6" x="842.5" y="601.2422"/><text fill="#000000" font-family="sans-serif" font-size="14" lengthAdjust="spacing" textLength="179" x="854.5" y="607.5889">localizacion: Localizacion</text><rect fill="none" height="6" style="stroke:#C82930;stroke-width:1.0;" width="6" x="842.5" y="617.5391"/><text fill="#000000" font-family="sans-serif" font-size="14" lengthAdjust="spacing" textLength="176" x="854.5" y="623.8857">servicios: List&lt;Servicio&gt;</text><line style="stroke:#181818;stroke-width:0.5;" x1="835.5" x2="1048.5" y1="631.1875" y2="631.1875"/></g><!--class TipoEstablecimiento--><g id="elem_TipoEstablecimiento"><rect codeLine="37" fill="#F1F1F1" height="80.5938" id="TipoEstablecimiento" rx="2.5" ry="2.5" style="stroke:#181818;stroke-width:0.5;" width="182" x="851" y="707"/><ellipse cx="866" cy="723" fill="#EB937F" rx="11" ry="11" style="stroke:#181818;stroke-width:1.0;"/><path d="M864.7969,723.875 L866.25,723.875 L866.25,723.9844 C866.25,724.3906 866.2813,724.5469 866.3594,724.7031 C866.5156,724.9531 866.7969,725.1094 867.0938,725.1094 C867.3438,725.1094 867.6094,724.9688 867.7656,724.75 C867.8906,724.5938 867.9219,724.4375 867.9219,723.9844 L867.9219,722.0625 C867.9219,721.9063 867.9219,721.8594 867.9063,721.7031 C867.8438,721.2344 867.5313,720.9219 867.0781,720.9219 C866.8281,720.9219 866.5625,721.0625 866.3906,721.2813 C866.2813,721.4531 866.25,721.6094 866.25,722.0625 L866.25,722.1875 L864.7969,722.1875 L864.7969,719.7813 L868.7813,719.7813 L868.7813,720.6406 C868.7813,721.0469 868.8125,721.2188 868.8906,721.375 C869.0625,721.625 869.3438,721.7813 869.625,721.7813 C869.8906,721.7813 870.1563,721.6406 870.3281,721.4219 C870.4375,721.25 870.4688,721.1094 870.4688,720.6406 L870.4688,718.0938 L862.8438,718.0938 C862.4063,718.0938 862.2813,718.1094 862.125,718.2031 C861.875,718.3594 861.7188,718.6563 861.7188,718.9375 C861.7188,719.2188 861.8594,719.4688 862.0781,719.6406 C862.2344,719.75 862.4219,719.7813 862.8438,719.7813 L863.0938,719.7813 L863.0938,726.2969 L862.8438,726.2969 C862.4375,726.2969 862.2813,726.3125 862.125,726.4219 C861.875,726.5938 861.7188,726.8594 861.7188,727.1563 C861.7188,727.4219 861.8594,727.6719 862.0781,727.8281 C862.2188,727.9531 862.4531,728 862.8438,728 L870.8438,728 L870.8438,725.4219 C870.8438,724.9844 870.8125,724.8438 870.7344,724.6875 C870.5625,724.4375 870.2813,724.2813 870,724.2813 C869.7344,724.2813 869.4688,724.3906 869.2969,724.6406 C869.1875,724.7969 869.1563,724.9375 869.1563,725.4219 L869.1563,726.2969 L864.7969,726.2969 L864.7969,723.875 Z " fill="#000000"/><text fill="#000000" font-family="sans-serif" font-size="14" lengthAdjust="spacing" textLength="150" x="880" y="727.8467">TipoEstablecimiento</text><line style="stroke:#181818;stroke-width:0.5;" x1="852" x2="1032" y1="739" y2="739"/><text fill="#000000" font-family="sans-serif" font-size="14" lengthAdjust="spacing" textLength="72" x="857" y="755.9951">ESTACION</text><text fill="#000000" font-family="sans-serif" font-size="14" lengthAdjust="spacing" textLength="74" x="857" y="772.292">SUCURSAL</text><line style="stroke:#181818;stroke-width:0.5;" x1="852" x2="1032" y1="779.5938" y2="779.5938"/></g><!--class Servicio--><g id="elem_Servicio"><rect codeLine="42" fill="#F1F1F1" height="80.5938" id="Servicio" rx="2.5" ry="2.5" style="stroke:#181818;stroke-width:0.5;" width="190" x="82" y="707"/><ellipse cx="144.25" cy="723" fill="#ADD1B2" rx="11" ry="11" style="stroke:#181818;stroke-width:1.0;"/><path d="M146.5938,718.6719 C145.6563,718.2344 145.0625,718.0938 144.1875,718.0938 C141.5625,718.0938 139.5625,720.1719 139.5625,722.8906 L139.5625,724.0156 C139.5625,726.5938 141.6719,728.4844 144.5625,728.4844 C145.7813,728.4844 146.9375,728.1875 147.6875,727.6406 C148.2656,727.2344 148.5938,726.7813 148.5938,726.3906 C148.5938,725.9375 148.2031,725.5469 147.7344,725.5469 C147.5156,725.5469 147.3125,725.625 147.125,725.8125 C146.6719,726.2969 146.6719,726.2969 146.4844,726.3906 C146.0625,726.6563 145.375,726.7813 144.6094,726.7813 C142.5625,726.7813 141.2656,725.6875 141.2656,723.9844 L141.2656,722.8906 C141.2656,721.1094 142.5156,719.7969 144.25,719.7969 C144.8281,719.7969 145.4375,719.9531 145.9063,720.2031 C146.3906,720.4844 146.5625,720.7031 146.6563,721.1094 C146.7188,721.5156 146.75,721.6406 146.8906,721.7656 C147.0313,721.9063 147.2656,722.0156 147.4844,722.0156 C147.75,722.0156 148.0156,721.875 148.1875,721.6563 C148.2969,721.5 148.3281,721.3125 148.3281,720.8906 L148.3281,719.4688 C148.3281,719.0313 148.3125,718.9063 148.2188,718.75 C148.0625,718.4844 147.7813,718.3438 147.4844,718.3438 C147.1875,718.3438 146.9844,718.4375 146.7656,718.75 L146.5938,718.6719 Z " fill="#000000"/><text fill="#000000" font-family="sans-serif" font-size="14" lengthAdjust="spacing" textLength="57" x="164.75" y="727.8467">Servicio</text><line style="stroke:#181818;stroke-width:0.5;" x1="83" x2="271" y1="739" y2="739"/><rect fill="none" height="6" style="stroke:#C82930;stroke-width:1.0;" width="6" x="90" y="749.6484"/><text fill="#000000" font-family="sans-serif" font-size="14" lengthAdjust="spacing" textLength="136" x="102" y="755.9951">descripcion: String</text><rect fill="none" height="6" style="stroke:#C82930;stroke-width:1.0;" width="6" x="90" y="765.9453"/><text fill="#000000" font-family="sans-serif" font-size="14" lengthAdjust="spacing" textLength="164" x="102" y="772.292">estado: EstadoServicio</text><line style="stroke:#181818;stroke-width:0.5;" x1="83" x2="271" y1="779.5938" y2="779.5938"/></g><!--class EstadoServicio--><g id="elem_EstadoServicio"><rect codeLine="47" fill="#F1F1F1" height="96.8906" id="EstadoServicio" rx="2.5" ry="2.5" style="stroke:#181818;stroke-width:0.5;" width="138" x="108" y="856"/><ellipse cx="123" cy="872" fill="#EB937F" rx="11" ry="11" style="stroke:#181818;stroke-width:1.0;"/><path d="M121.7969,872.875 L123.25,872.875 L123.25,872.9844 C123.25,873.3906 123.2813,873.5469 123.3594,873.7031 C123.5156,873.9531 123.7969,874.1094 124.0938,874.1094 C124.3438,874.1094 124.6094,873.9688 124.7656,873.75 C124.8906,873.5938 124.9219,873.4375 124.9219,872.9844 L124.9219,871.0625 C124.9219,870.9063 124.9219,870.8594 124.9063,870.7031 C124.8438,870.2344 124.5313,869.9219 124.0781,869.9219 C123.8281,869.9219 123.5625,870.0625 123.3906,870.2813 C123.2813,870.4531 123.25,870.6094 123.25,871.0625 L123.25,871.1875 L121.7969,871.1875 L121.7969,868.7813 L125.7813,868.7813 L125.7813,869.6406 C125.7813,870.0469 125.8125,870.2188 125.8906,870.375 C126.0625,870.625 126.3438,870.7813 126.625,870.7813 C126.8906,870.7813 127.1563,870.6406 127.3281,870.4219 C127.4375,870.25 127.4688,870.1094 127.4688,869.6406 L127.4688,867.0938 L119.8438,867.0938 C119.4063,867.0938 119.2813,867.1094 119.125,867.2031 C118.875,867.3594 118.7188,867.6563 118.7188,867.9375 C118.7188,868.2188 118.8594,868.4688 119.0781,868.6406 C119.2344,868.75 119.4219,868.7813 119.8438,868.7813 L120.0938,868.7813 L120.0938,875.2969 L119.8438,875.2969 C119.4375,875.2969 119.2813,875.3125 119.125,875.4219 C118.875,875.5938 118.7188,875.8594 118.7188,876.1563 C118.7188,876.4219 118.8594,876.6719 119.0781,876.8281 C119.2188,876.9531 119.4531,877 119.8438,877 L127.8438,877 L127.8438,874.4219 C127.8438,873.9844 127.8125,873.8438 127.7344,873.6875 C127.5625,873.4375 127.2813,873.2813 127,873.2813 C126.7344,873.2813 126.4688,873.3906 126.2969,873.6406 C126.1875,873.7969 126.1563,873.9375 126.1563,874.4219 L126.1563,875.2969 L121.7969,875.2969 L121.7969,872.875 Z " fill="#000000"/><text fill="#000000" font-family="sans-serif" font-size="14" lengthAdjust="spacing" textLength="106" x="137" y="876.8467">EstadoServicio</text><line style="stroke:#181818;stroke-width:0.5;" x1="109" x2="245" y1="888" y2="888"/><text fill="#000000" font-family="sans-serif" font-size="14" lengthAdjust="spacing" textLength="85" x="114" y="904.9951">DISPONIBLE</text><text fill="#000000" font-family="sans-serif" font-size="14" lengthAdjust="spacing" textLength="113" x="114" y="921.292">NO_DISPONIBLE</text><text fill="#000000" font-family="sans-serif" font-size="14" lengthAdjust="spacing" textLength="119" x="114" y="937.5889">MANTENIMIENTO</text><line style="stroke:#181818;stroke-width:0.5;" x1="109" x2="245" y1="944.8906" y2="944.8906"/></g><!--class Comunidad--><g id="elem_Comunidad"><rect codeLine="53" fill="#F1F1F1" height="96.8906" id="Comunidad" rx="2.5" ry="2.5" style="stroke:#181818;stroke-width:0.5;" width="285" x="35.5" y="15"/><ellipse cx="133.75" cy="31" fill="#ADD1B2" rx="11" ry="11" style="stroke:#181818;stroke-width:1.0;"/><path d="M136.0938,26.6719 C135.1563,26.2344 134.5625,26.0938 133.6875,26.0938 C131.0625,26.0938 129.0625,28.1719 129.0625,30.8906 L129.0625,32.0156 C129.0625,34.5938 131.1719,36.4844 134.0625,36.4844 C135.2813,36.4844 136.4375,36.1875 137.1875,35.6406 C137.7656,35.2344 138.0938,34.7813 138.0938,34.3906 C138.0938,33.9375 137.7031,33.5469 137.2344,33.5469 C137.0156,33.5469 136.8125,33.625 136.625,33.8125 C136.1719,34.2969 136.1719,34.2969 135.9844,34.3906 C135.5625,34.6563 134.875,34.7813 134.1094,34.7813 C132.0625,34.7813 130.7656,33.6875 130.7656,31.9844 L130.7656,30.8906 C130.7656,29.1094 132.0156,27.7969 133.75,27.7969 C134.3281,27.7969 134.9375,27.9531 135.4063,28.2031 C135.8906,28.4844 136.0625,28.7031 136.1563,29.1094 C136.2188,29.5156 136.25,29.6406 136.3906,29.7656 C136.5313,29.9063 136.7656,30.0156 136.9844,30.0156 C137.25,30.0156 137.5156,29.875 137.6875,29.6563 C137.7969,29.5 137.8281,29.3125 137.8281,28.8906 L137.8281,27.4688 C137.8281,27.0313 137.8125,26.9063 137.7188,26.75 C137.5625,26.4844 137.2813,26.3438 136.9844,26.3438 C136.6875,26.3438 136.4844,26.4375 136.2656,26.75 L136.0938,26.6719 Z " fill="#000000"/><text fill="#000000" font-family="sans-serif" font-size="14" lengthAdjust="spacing" textLength="80" x="154.25" y="35.8467">Comunidad</text><line style="stroke:#181818;stroke-width:0.5;" x1="36.5" x2="319.5" y1="47" y2="47"/><rect fill="none" height="6" style="stroke:#C82930;stroke-width:1.0;" width="6" x="43.5" y="57.6484"/><text fill="#000000" font-family="sans-serif" font-size="14" lengthAdjust="spacing" textLength="110" x="55.5" y="63.9951">nombre: String</text><rect fill="none" height="6" style="stroke:#C82930;stroke-width:1.0;" width="6" x="43.5" y="73.9453"/><text fill="#000000" font-family="sans-serif" font-size="14" lengthAdjust="spacing" textLength="259" x="55.5" y="80.292">listaAdministradores: Administrador</text><rect fill="none" height="6" style="stroke:#C82930;stroke-width:1.0;" width="6" x="43.5" y="90.2422"/><text fill="#000000" font-family="sans-serif" font-size="14" lengthAdjust="spacing" textLength="174" x="55.5" y="96.5889">listaMiembros: Miembro</text><line style="stroke:#181818;stroke-width:0.5;" x1="36.5" x2="319.5" y1="103.8906" y2="103.8906"/></g><!--class Administrador--><g id="elem_Administrador"><rect codeLine="59" fill="#F1F1F1" height="64.2969" id="Administrador" rx="2.5" ry="2.5" style="stroke:#181818;stroke-width:0.5;" width="150" x="10" y="204.5"/><ellipse cx="32.2" cy="220.5" fill="#ADD1B2" rx="11" ry="11" style="stroke:#181818;stroke-width:1.0;"/><path d="M34.5438,216.1719 C33.6063,215.7344 33.0125,215.5938 32.1375,215.5938 C29.5125,215.5938 27.5125,217.6719 27.5125,220.3906 L27.5125,221.5156 C27.5125,224.0938 29.6219,225.9844 32.5125,225.9844 C33.7313,225.9844 34.8875,225.6875 35.6375,225.1406 C36.2156,224.7344 36.5438,224.2813 36.5438,223.8906 C36.5438,223.4375 36.1531,223.0469 35.6844,223.0469 C35.4656,223.0469 35.2625,223.125 35.075,223.3125 C34.6219,223.7969 34.6219,223.7969 34.4344,223.8906 C34.0125,224.1563 33.325,224.2813 32.5594,224.2813 C30.5125,224.2813 29.2156,223.1875 29.2156,221.4844 L29.2156,220.3906 C29.2156,218.6094 30.4656,217.2969 32.2,217.2969 C32.7781,217.2969 33.3875,217.4531 33.8563,217.7031 C34.3406,217.9844 34.5125,218.2031 34.6063,218.6094 C34.6688,219.0156 34.7,219.1406 34.8406,219.2656 C34.9813,219.4063 35.2156,219.5156 35.4344,219.5156 C35.7,219.5156 35.9656,219.375 36.1375,219.1563 C36.2469,219 36.2781,218.8125 36.2781,218.3906 L36.2781,216.9688 C36.2781,216.5313 36.2625,216.4063 36.1688,216.25 C36.0125,215.9844 35.7313,215.8438 35.4344,215.8438 C35.1375,215.8438 34.9344,215.9375 34.7156,216.25 L34.5438,216.1719 Z " fill="#000000"/><text fill="#000000" font-family="sans-serif" font-size="14" lengthAdjust="spacing" textLength="102" x="47.8" y="225.3467">Administrador</text><line style="stroke:#181818;stroke-width:0.5;" x1="11" x2="159" y1="236.5" y2="236.5"/><rect fill="none" height="6" style="stroke:#C82930;stroke-width:1.0;" width="6" x="18" y="247.1484"/><text fill="#000000" font-family="sans-serif" font-size="14" lengthAdjust="spacing" textLength="124" x="30" y="253.4951">persona: Persona</text><line style="stroke:#181818;stroke-width:0.5;" x1="11" x2="159" y1="260.7969" y2="260.7969"/></g><!--class Miembro--><g id="elem_Miembro"><rect codeLine="64" fill="#F1F1F1" height="64.2969" id="Miembro" rx="2.5" ry="2.5" style="stroke:#181818;stroke-width:0.5;" width="150" x="195" y="204.5"/><ellipse cx="234.3" cy="220.5" fill="#ADD1B2" rx="11" ry="11" style="stroke:#181818;stroke-width:1.0;"/><path d="M236.6438,216.1719 C235.7063,215.7344 235.1125,215.5938 234.2375,215.5938 C231.6125,215.5938 229.6125,217.6719 229.6125,220.3906 L229.6125,221.5156 C229.6125,224.0938 231.7219,225.9844 234.6125,225.9844 C235.8313,225.9844 236.9875,225.6875 237.7375,225.1406 C238.3156,224.7344 238.6438,224.2813 238.6438,223.8906 C238.6438,223.4375 238.2531,223.0469 237.7844,223.0469 C237.5656,223.0469 237.3625,223.125 237.175,223.3125 C236.7219,223.7969 236.7219,223.7969 236.5344,223.8906 C236.1125,224.1563 235.425,224.2813 234.6594,224.2813 C232.6125,224.2813 231.3156,223.1875 231.3156,221.4844 L231.3156,220.3906 C231.3156,218.6094 232.5656,217.2969 234.3,217.2969 C234.8781,217.2969 235.4875,217.4531 235.9563,217.7031 C236.4406,217.9844 236.6125,218.2031 236.7063,218.6094 C236.7688,219.0156 236.8,219.1406 236.9406,219.2656 C237.0813,219.4063 237.3156,219.5156 237.5344,219.5156 C237.8,219.5156 238.0656,219.375 238.2375,219.1563 C238.3469,219 238.3781,218.8125 238.3781,218.3906 L238.3781,216.9688 C238.3781,216.5313 238.3625,216.4063 238.2688,216.25 C238.1125,215.9844 237.8313,215.8438 237.5344,215.8438 C237.2375,215.8438 237.0344,215.9375 236.8156,216.25 L236.6438,216.1719 Z " fill="#000000"/><text fill="#000000" font-family="sans-serif" font-size="14" lengthAdjust="spacing" textLength="64" x="253.7" y="225.3467">Miembro</text><line style="stroke:#181818;stroke-width:0.5;" x1="196" x2="344" y1="236.5" y2="236.5"/><rect fill="none" height="6" style="stroke:#C82930;stroke-width:1.0;" width="6" x="203" y="247.1484"/><text fill="#000000" font-family="sans-serif" font-size="14" lengthAdjust="spacing" textLength="124" x="215" y="253.4951">persona: Persona</text><line style="stroke:#181818;stroke-width:0.5;" x1="196" x2="344" y1="260.7969" y2="260.7969"/></g><!--class Designado--><g id="elem_Designado"><rect codeLine="68" fill="#F1F1F1" height="64.2969" id="Designado" rx="2.5" ry="2.5" style="stroke:#181818;stroke-width:0.5;" width="136" x="382" y="377.5"/><ellipse cx="410.05" cy="393.5" fill="#ADD1B2" rx="11" ry="11" style="stroke:#181818;stroke-width:1.0;"/><path d="M412.3938,389.1719 C411.4563,388.7344 410.8625,388.5938 409.9875,388.5938 C407.3625,388.5938 405.3625,390.6719 405.3625,393.3906 L405.3625,394.5156 C405.3625,397.0938 407.4719,398.9844 410.3625,398.9844 C411.5813,398.9844 412.7375,398.6875 413.4875,398.1406 C414.0656,397.7344 414.3938,397.2813 414.3938,396.8906 C414.3938,396.4375 414.0031,396.0469 413.5344,396.0469 C413.3156,396.0469 413.1125,396.125 412.925,396.3125 C412.4719,396.7969 412.4719,396.7969 412.2844,396.8906 C411.8625,397.1563 411.175,397.2813 410.4094,397.2813 C408.3625,397.2813 407.0656,396.1875 407.0656,394.4844 L407.0656,393.3906 C407.0656,391.6094 408.3156,390.2969 410.05,390.2969 C410.6281,390.2969 411.2375,390.4531 411.7063,390.7031 C412.1906,390.9844 412.3625,391.2031 412.4563,391.6094 C412.5188,392.0156 412.55,392.1406 412.6906,392.2656 C412.8313,392.4063 413.0656,392.5156 413.2844,392.5156 C413.55,392.5156 413.8156,392.375 413.9875,392.1563 C414.0969,392 414.1281,391.8125 414.1281,391.3906 L414.1281,389.9688 C414.1281,389.5313 414.1125,389.4063 414.0188,389.25 C413.8625,388.9844 413.5813,388.8438 413.2844,388.8438 C412.9875,388.8438 412.7844,388.9375 412.5656,389.25 L412.3938,389.1719 Z " fill="#000000"/><text fill="#000000" font-family="sans-serif" font-size="14" lengthAdjust="spacing" textLength="75" x="426.95" y="398.3467">Designado</text><line style="stroke:#181818;stroke-width:0.5;" x1="383" x2="517" y1="409.5" y2="409.5"/><rect fill="none" height="6" style="stroke:#C82930;stroke-width:1.0;" width="6" x="390" y="420.1484"/><text fill="#000000" font-family="sans-serif" font-size="14" lengthAdjust="spacing" textLength="110" x="402" y="426.4951">usuario: Usuario</text><line style="stroke:#181818;stroke-width:0.5;" x1="383" x2="517" y1="433.7969" y2="433.7969"/></g><!--class Persona--><g id="elem_Persona"><rect codeLine="73" fill="#F1F1F1" height="96.8906" id="Persona" rx="2.5" ry="2.5" style="stroke:#181818;stroke-width:0.5;" width="340" x="7" y="361"/><ellipse cx="144.25" cy="377" fill="#ADD1B2" rx="11" ry="11" style="stroke:#181818;stroke-width:1.0;"/><path d="M146.5938,372.6719 C145.6563,372.2344 145.0625,372.0938 144.1875,372.0938 C141.5625,372.0938 139.5625,374.1719 139.5625,376.8906 L139.5625,378.0156 C139.5625,380.5938 141.6719,382.4844 144.5625,382.4844 C145.7813,382.4844 146.9375,382.1875 147.6875,381.6406 C148.2656,381.2344 148.5938,380.7813 148.5938,380.3906 C148.5938,379.9375 148.2031,379.5469 147.7344,379.5469 C147.5156,379.5469 147.3125,379.625 147.125,379.8125 C146.6719,380.2969 146.6719,380.2969 146.4844,380.3906 C146.0625,380.6563 145.375,380.7813 144.6094,380.7813 C142.5625,380.7813 141.2656,379.6875 141.2656,377.9844 L141.2656,376.8906 C141.2656,375.1094 142.5156,373.7969 144.25,373.7969 C144.8281,373.7969 145.4375,373.9531 145.9063,374.2031 C146.3906,374.4844 146.5625,374.7031 146.6563,375.1094 C146.7188,375.5156 146.75,375.6406 146.8906,375.7656 C147.0313,375.9063 147.2656,376.0156 147.4844,376.0156 C147.75,376.0156 148.0156,375.875 148.1875,375.6563 C148.2969,375.5 148.3281,375.3125 148.3281,374.8906 L148.3281,373.4688 C148.3281,373.0313 148.3125,372.9063 148.2188,372.75 C148.0625,372.4844 147.7813,372.3438 147.4844,372.3438 C147.1875,372.3438 146.9844,372.4375 146.7656,372.75 L146.5938,372.6719 Z " fill="#000000"/><text fill="#000000" font-family="sans-serif" font-size="14" lengthAdjust="spacing" textLength="57" x="164.75" y="381.8467">Persona</text><line style="stroke:#181818;stroke-width:0.5;" x1="8" x2="346" y1="393" y2="393"/><rect fill="none" height="6" style="stroke:#C82930;stroke-width:1.0;" width="6" x="15" y="403.6484"/><text fill="#000000" font-family="sans-serif" font-size="14" lengthAdjust="spacing" textLength="110" x="27" y="409.9951">usuario: Usuario</text><rect fill="none" height="6" style="stroke:#C82930;stroke-width:1.0;" width="6" x="15" y="419.9453"/><text fill="#000000" font-family="sans-serif" font-size="14" lengthAdjust="spacing" textLength="314" x="27" y="426.292">localizacionesDeInteres: List&lt;Localizacion&gt;</text><rect fill="none" height="6" style="stroke:#C82930;stroke-width:1.0;" width="6" x="15" y="436.2422"/><text fill="#000000" font-family="sans-serif" font-size="14" lengthAdjust="spacing" textLength="247" x="27" y="442.5889">serviciosDeInteres: List&lt;Servicio&gt;</text><line style="stroke:#181818;stroke-width:0.5;" x1="8" x2="346" y1="449.8906" y2="449.8906"/></g><!--class Usuario--><g id="elem_Usuario"><rect codeLine="80" fill="#F1F1F1" height="80.5938" id="Usuario" rx="2.5" ry="2.5" style="stroke:#181818;stroke-width:0.5;" width="149" x="375.5" y="542"/><ellipse cx="420.25" cy="558" fill="#ADD1B2" rx="11" ry="11" style="stroke:#181818;stroke-width:1.0;"/><path d="M422.5938,553.6719 C421.6563,553.2344 421.0625,553.0938 420.1875,553.0938 C417.5625,553.0938 415.5625,555.1719 415.5625,557.8906 L415.5625,559.0156 C415.5625,561.5938 417.6719,563.4844 420.5625,563.4844 C421.7813,563.4844 422.9375,563.1875 423.6875,562.6406 C424.2656,562.2344 424.5938,561.7813 424.5938,561.3906 C424.5938,560.9375 424.2031,560.5469 423.7344,560.5469 C423.5156,560.5469 423.3125,560.625 423.125,560.8125 C422.6719,561.2969 422.6719,561.2969 422.4844,561.3906 C422.0625,561.6563 421.375,561.7813 420.6094,561.7813 C418.5625,561.7813 417.2656,560.6875 417.2656,558.9844 L417.2656,557.8906 C417.2656,556.1094 418.5156,554.7969 420.25,554.7969 C420.8281,554.7969 421.4375,554.9531 421.9063,555.2031 C422.3906,555.4844 422.5625,555.7031 422.6563,556.1094 C422.7188,556.5156 422.75,556.6406 422.8906,556.7656 C423.0313,556.9063 423.2656,557.0156 423.4844,557.0156 C423.75,557.0156 424.0156,556.875 424.1875,556.6563 C424.2969,556.5 424.3281,556.3125 424.3281,555.8906 L424.3281,554.4688 C424.3281,554.0313 424.3125,553.9063 424.2188,553.75 C424.0625,553.4844 423.7813,553.3438 423.4844,553.3438 C423.1875,553.3438 422.9844,553.4375 422.7656,553.75 L422.5938,553.6719 Z " fill="#000000"/><text fill="#000000" font-family="sans-serif" font-size="14" lengthAdjust="spacing" textLength="51" x="440.75" y="562.8467">Usuario</text><line style="stroke:#181818;stroke-width:0.5;" x1="376.5" x2="523.5" y1="574" y2="574"/><rect fill="none" height="6" style="stroke:#C82930;stroke-width:1.0;" width="6" x="383.5" y="584.6484"/><text fill="#000000" font-family="sans-serif" font-size="14" lengthAdjust="spacing" textLength="123" x="395.5" y="590.9951">username: String</text><rect fill="none" height="6" style="stroke:#C82930;stroke-width:1.0;" width="6" x="383.5" y="600.9453"/><text fill="#000000" font-family="sans-serif" font-size="14" lengthAdjust="spacing" textLength="120" x="395.5" y="607.292">password: String</text><line style="stroke:#181818;stroke-width:0.5;" x1="376.5" x2="523.5" y1="614.5938" y2="614.5938"/></g><!--class Localizacion--><g id="elem_Localizacion"><rect codeLine="85" fill="#F1F1F1" height="96.8906" id="Localizacion" rx="2.5" ry="2.5" style="stroke:#181818;stroke-width:0.5;" width="233" x="464.5" y="699"/><ellipse cx="533.25" cy="715" fill="#ADD1B2" rx="11" ry="11" style="stroke:#181818;stroke-width:1.0;"/><path d="M535.5938,710.6719 C534.6563,710.2344 534.0625,710.0938 533.1875,710.0938 C530.5625,710.0938 528.5625,712.1719 528.5625,714.8906 L528.5625,716.0156 C528.5625,718.5938 530.6719,720.4844 533.5625,720.4844 C534.7813,720.4844 535.9375,720.1875 536.6875,719.6406 C537.2656,719.2344 537.5938,718.7813 537.5938,718.3906 C537.5938,717.9375 537.2031,717.5469 536.7344,717.5469 C536.5156,717.5469 536.3125,717.625 536.125,717.8125 C535.6719,718.2969 535.6719,718.2969 535.4844,718.3906 C535.0625,718.6563 534.375,718.7813 533.6094,718.7813 C531.5625,718.7813 530.2656,717.6875 530.2656,715.9844 L530.2656,714.8906 C530.2656,713.1094 531.5156,711.7969 533.25,711.7969 C533.8281,711.7969 534.4375,711.9531 534.9063,712.2031 C535.3906,712.4844 535.5625,712.7031 535.6563,713.1094 C535.7188,713.5156 535.75,713.6406 535.8906,713.7656 C536.0313,713.9063 536.2656,714.0156 536.4844,714.0156 C536.75,714.0156 537.0156,713.875 537.1875,713.6563 C537.2969,713.5 537.3281,713.3125 537.3281,712.8906 L537.3281,711.4688 C537.3281,711.0313 537.3125,710.9063 537.2188,710.75 C537.0625,710.4844 536.7813,710.3438 536.4844,710.3438 C536.1875,710.3438 535.9844,710.4375 535.7656,710.75 L535.5938,710.6719 Z " fill="#000000"/><text fill="#000000" font-family="sans-serif" font-size="14" lengthAdjust="spacing" textLength="87" x="553.75" y="719.8467">Localizacion</text><line style="stroke:#181818;stroke-width:0.5;" x1="465.5" x2="696.5" y1="731" y2="731"/><text fill="#000000" font-family="sans-serif" font-size="14" lengthAdjust="spacing" textLength="140" x="470.5" y="747.9951">provincia: Provincia</text><text fill="#000000" font-family="sans-serif" font-size="14" lengthAdjust="spacing" textLength="221" x="470.5" y="764.292">departamento: Departamento</text><text fill="#000000" font-family="sans-serif" font-size="14" lengthAdjust="spacing" textLength="147" x="470.5" y="780.5889">municipio: Municipio</text><line style="stroke:#181818;stroke-width:0.5;" x1="465.5" x2="696.5" y1="787.8906" y2="787.8906"/></g><!--class GestorEntidades--><g id="elem_GestorEntidades"><rect codeLine="91" fill="#F1F1F1" height="113.1875" id="GestorEntidades" rx="2.5" ry="2.5" style="stroke:#181818;stroke-width:0.5;" width="225" x="674.5" y="180"/><ellipse cx="722.75" cy="196" fill="#ADD1B2" rx="11" ry="11" style="stroke:#181818;stroke-width:1.0;"/><path d="M725.0938,191.6719 C724.1563,191.2344 723.5625,191.0938 722.6875,191.0938 C720.0625,191.0938 718.0625,193.1719 718.0625,195.8906 L718.0625,197.0156 C718.0625,199.5938 720.1719,201.4844 723.0625,201.4844 C724.2813,201.4844 725.4375,201.1875 726.1875,200.6406 C726.7656,200.2344 727.0938,199.7813 727.0938,199.3906 C727.0938,198.9375 726.7031,198.5469 726.2344,198.5469 C726.0156,198.5469 725.8125,198.625 725.625,198.8125 C725.1719,199.2969 725.1719,199.2969 724.9844,199.3906 C724.5625,199.6563 723.875,199.7813 723.1094,199.7813 C721.0625,199.7813 719.7656,198.6875 719.7656,196.9844 L719.7656,195.8906 C719.7656,194.1094 721.0156,192.7969 722.75,192.7969 C723.3281,192.7969 723.9375,192.9531 724.4063,193.2031 C724.8906,193.4844 725.0625,193.7031 725.1563,194.1094 C725.2188,194.5156 725.25,194.6406 725.3906,194.7656 C725.5313,194.9063 725.7656,195.0156 725.9844,195.0156 C726.25,195.0156 726.5156,194.875 726.6875,194.6563 C726.7969,194.5 726.8281,194.3125 726.8281,193.8906 L726.8281,192.4688 C726.8281,192.0313 726.8125,191.9063 726.7188,191.75 C726.5625,191.4844 726.2813,191.3438 725.9844,191.3438 C725.6875,191.3438 725.4844,191.4375 725.2656,191.75 L725.0938,191.6719 Z " fill="#000000"/><text fill="#000000" font-family="sans-serif" font-size="14" lengthAdjust="spacing" textLength="120" x="743.25" y="200.8467">GestorEntidades</text><line style="stroke:#181818;stroke-width:0.5;" x1="675.5" x2="898.5" y1="212" y2="212"/><rect fill="none" height="6" style="stroke:#C82930;stroke-width:1.0;" width="6" x="682.5" y="222.6484"/><text fill="#000000" font-family="sans-serif" font-size="14" lengthAdjust="spacing" textLength="110" x="694.5" y="228.9951">usuario: Usuario</text><rect fill="none" height="6" style="stroke:#C82930;stroke-width:1.0;" width="6" x="682.5" y="238.9453"/><text fill="#000000" font-family="sans-serif" font-size="14" lengthAdjust="spacing" textLength="157" x="694.5" y="245.292">designado: Designado</text><rect fill="none" height="6" style="stroke:#C82930;stroke-width:1.0;" width="6" x="682.5" y="255.2422"/><text fill="#000000" font-family="sans-serif" font-size="14" lengthAdjust="spacing" textLength="199" x="694.5" y="261.5889">entidades: List&lt;Entidades&gt;</text><rect fill="none" height="6" style="stroke:#C82930;stroke-width:1.0;" width="6" x="682.5" y="271.5391"/><text fill="#000000" font-family="sans-serif" font-size="14" lengthAdjust="spacing" textLength="124" x="694.5" y="277.8857">tipo : TipoGestor</text><line style="stroke:#181818;stroke-width:0.5;" x1="675.5" x2="898.5" y1="285.1875" y2="285.1875"/></g><!--class TipoGestor--><g id="elem_TipoGestor"><rect codeLine="98" fill="#F1F1F1" height="80.5938" id="TipoGestor" rx="2.5" ry="2.5" style="stroke:#181818;stroke-width:0.5;" width="113" x="985.5" y="369"/><ellipse cx="1000.5" cy="385" fill="#EB937F" rx="11" ry="11" style="stroke:#181818;stroke-width:1.0;"/><path d="M999.2969,385.875 L1000.75,385.875 L1000.75,385.9844 C1000.75,386.3906 1000.7813,386.5469 1000.8594,386.7031 C1001.0156,386.9531 1001.2969,387.1094 1001.5938,387.1094 C1001.8438,387.1094 1002.1094,386.9688 1002.2656,386.75 C1002.3906,386.5938 1002.4219,386.4375 1002.4219,385.9844 L1002.4219,384.0625 C1002.4219,383.9063 1002.4219,383.8594 1002.4063,383.7031 C1002.3438,383.2344 1002.0313,382.9219 1001.5781,382.9219 C1001.3281,382.9219 1001.0625,383.0625 1000.8906,383.2813 C1000.7813,383.4531 1000.75,383.6094 1000.75,384.0625 L1000.75,384.1875 L999.2969,384.1875 L999.2969,381.7813 L1003.2813,381.7813 L1003.2813,382.6406 C1003.2813,383.0469 1003.3125,383.2188 1003.3906,383.375 C1003.5625,383.625 1003.8438,383.7813 1004.125,383.7813 C1004.3906,383.7813 1004.6563,383.6406 1004.8281,383.4219 C1004.9375,383.25 1004.9688,383.1094 1004.9688,382.6406 L1004.9688,380.0938 L997.3438,380.0938 C996.9063,380.0938 996.7813,380.1094 996.625,380.2031 C996.375,380.3594 996.2188,380.6563 996.2188,380.9375 C996.2188,381.2188 996.3594,381.4688 996.5781,381.6406 C996.7344,381.75 996.9219,381.7813 997.3438,381.7813 L997.5938,381.7813 L997.5938,388.2969 L997.3438,388.2969 C996.9375,388.2969 996.7813,388.3125 996.625,388.4219 C996.375,388.5938 996.2188,388.8594 996.2188,389.1563 C996.2188,389.4219 996.3594,389.6719 996.5781,389.8281 C996.7188,389.9531 996.9531,390 997.3438,390 L1005.3438,390 L1005.3438,387.4219 C1005.3438,386.9844 1005.3125,386.8438 1005.2344,386.6875 C1005.0625,386.4375 1004.7813,386.2813 1004.5,386.2813 C1004.2344,386.2813 1003.9688,386.3906 1003.7969,386.6406 C1003.6875,386.7969 1003.6563,386.9375 1003.6563,387.4219 L1003.6563,388.2969 L999.2969,388.2969 L999.2969,385.875 Z " fill="#000000"/><text fill="#000000" font-family="sans-serif" font-size="14" lengthAdjust="spacing" textLength="81" x="1014.5" y="389.8467">TipoGestor</text><line style="stroke:#181818;stroke-width:0.5;" x1="986.5" x2="1097.5" y1="401" y2="401"/><text fill="#000000" font-family="sans-serif" font-size="14" lengthAdjust="spacing" textLength="77" x="991.5" y="417.9951">Organismo</text><text fill="#000000" font-family="sans-serif" font-size="14" lengthAdjust="spacing" textLength="78" x="991.5" y="434.292">Prestadora</text><line style="stroke:#181818;stroke-width:0.5;" x1="986.5" x2="1097.5" y1="441.5938" y2="441.5938"/></g><!--class LectorCSV--><g id="elem_LectorCSV"><rect codeLine="103" fill="#F1F1F1" height="113.1875" id="LectorCSV" rx="2.5" ry="2.5" style="stroke:#181818;stroke-width:0.5;" width="219" x="1050.5" y="180"/><ellipse cx="1117.75" cy="196" fill="#ADD1B2" rx="11" ry="11" style="stroke:#181818;stroke-width:1.0;"/><path d="M1120.0938,191.6719 C1119.1563,191.2344 1118.5625,191.0938 1117.6875,191.0938 C1115.0625,191.0938 1113.0625,193.1719 1113.0625,195.8906 L1113.0625,197.0156 C1113.0625,199.5938 1115.1719,201.4844 1118.0625,201.4844 C1119.2813,201.4844 1120.4375,201.1875 1121.1875,200.6406 C1121.7656,200.2344 1122.0938,199.7813 1122.0938,199.3906 C1122.0938,198.9375 1121.7031,198.5469 1121.2344,198.5469 C1121.0156,198.5469 1120.8125,198.625 1120.625,198.8125 C1120.1719,199.2969 1120.1719,199.2969 1119.9844,199.3906 C1119.5625,199.6563 1118.875,199.7813 1118.1094,199.7813 C1116.0625,199.7813 1114.7656,198.6875 1114.7656,196.9844 L1114.7656,195.8906 C1114.7656,194.1094 1116.0156,192.7969 1117.75,192.7969 C1118.3281,192.7969 1118.9375,192.9531 1119.4063,193.2031 C1119.8906,193.4844 1120.0625,193.7031 1120.1563,194.1094 C1120.2188,194.5156 1120.25,194.6406 1120.3906,194.7656 C1120.5313,194.9063 1120.7656,195.0156 1120.9844,195.0156 C1121.25,195.0156 1121.5156,194.875 1121.6875,194.6563 C1121.7969,194.5 1121.8281,194.3125 1121.8281,193.8906 L1121.8281,192.4688 C1121.8281,192.0313 1121.8125,191.9063 1121.7188,191.75 C1121.5625,191.4844 1121.2813,191.3438 1120.9844,191.3438 C1120.6875,191.3438 1120.4844,191.4375 1120.2656,191.75 L1120.0938,191.6719 Z " fill="#000000"/><text fill="#000000" font-family="sans-serif" font-size="14" lengthAdjust="spacing" textLength="76" x="1138.25" y="200.8467">LectorCSV</text><line style="stroke:#181818;stroke-width:0.5;" x1="1051.5" x2="1268.5" y1="212" y2="212"/><rect fill="none" height="6" style="stroke:#C82930;stroke-width:1.0;" width="6" x="1058.5" y="222.6484"/><text fill="#000000" font-family="sans-serif" font-size="14" lengthAdjust="spacing" textLength="87" x="1070.5" y="228.9951">path: String</text><rect fill="none" height="6" style="stroke:#C82930;stroke-width:1.0;" width="6" x="1058.5" y="238.9453"/><text fill="#000000" font-family="sans-serif" font-size="14" lengthAdjust="spacing" textLength="150" x="1070.5" y="245.292">separator: Character</text><line style="stroke:#181818;stroke-width:0.5;" x1="1051.5" x2="1268.5" y1="252.5938" y2="252.5938"/><ellipse cx="1061.5" cy="266.2422" fill="#84BE84" rx="3" ry="3" style="stroke:#038048;stroke-width:1.0;"/><text fill="#000000" font-family="sans-serif" font-size="14" lengthAdjust="spacing" textLength="193" x="1070.5" y="269.5889">leerArchivo(): List&lt;String&gt;</text><ellipse cx="1061.5" cy="282.5391" fill="#84BE84" rx="3" ry="3" style="stroke:#038048;stroke-width:1.0;"/><text fill="#000000" font-family="sans-serif" font-size="14" lengthAdjust="spacing" textLength="183" x="1070.5" y="285.8857">abrirArchivo(): FileReader</text></g><!--class ParserDatos--><g id="elem_ParserDatos"><rect codeLine="112" fill="#F1F1F1" height="113.1875" id="ParserDatos" rx="2.5" ry="2.5" style="stroke:#181818;stroke-width:0.5;" width="525" x="734.5" y="7"/><ellipse cx="949.25" cy="23" fill="#ADD1B2" rx="11" ry="11" style="stroke:#181818;stroke-width:1.0;"/><path d="M951.5938,18.6719 C950.6563,18.2344 950.0625,18.0938 949.1875,18.0938 C946.5625,18.0938 944.5625,20.1719 944.5625,22.8906 L944.5625,24.0156 C944.5625,26.5938 946.6719,28.4844 949.5625,28.4844 C950.7813,28.4844 951.9375,28.1875 952.6875,27.6406 C953.2656,27.2344 953.5938,26.7813 953.5938,26.3906 C953.5938,25.9375 953.2031,25.5469 952.7344,25.5469 C952.5156,25.5469 952.3125,25.625 952.125,25.8125 C951.6719,26.2969 951.6719,26.2969 951.4844,26.3906 C951.0625,26.6563 950.375,26.7813 949.6094,26.7813 C947.5625,26.7813 946.2656,25.6875 946.2656,23.9844 L946.2656,22.8906 C946.2656,21.1094 947.5156,19.7969 949.25,19.7969 C949.8281,19.7969 950.4375,19.9531 950.9063,20.2031 C951.3906,20.4844 951.5625,20.7031 951.6563,21.1094 C951.7188,21.5156 951.75,21.6406 951.8906,21.7656 C952.0313,21.9063 952.2656,22.0156 952.4844,22.0156 C952.75,22.0156 953.0156,21.875 953.1875,21.6563 C953.2969,21.5 953.3281,21.3125 953.3281,20.8906 L953.3281,19.4688 C953.3281,19.0313 953.3125,18.9063 953.2188,18.75 C953.0625,18.4844 952.7813,18.3438 952.4844,18.3438 C952.1875,18.3438 951.9844,18.4375 951.7656,18.75 L951.5938,18.6719 Z " fill="#000000"/><text fill="#000000" font-family="sans-serif" font-size="14" lengthAdjust="spacing" textLength="87" x="969.75" y="27.8467">ParserDatos</text><line style="stroke:#181818;stroke-width:0.5;" x1="735.5" x2="1258.5" y1="39" y2="39"/><rect fill="none" height="6" style="stroke:#C82930;stroke-width:1.0;" width="6" x="742.5" y="49.6484"/><text fill="#000000" font-family="sans-serif" font-size="14" lengthAdjust="spacing" textLength="128" x="754.5" y="55.9951">lector: LectorCSV</text><line style="stroke:#181818;stroke-width:0.5;" x1="735.5" x2="1258.5" y1="63.2969" y2="63.2969"/><rect fill="#F24D5C" height="6" style="stroke:#C82930;stroke-width:1.0;" width="6" x="742.5" y="73.9453"/><text fill="#000000" font-family="sans-serif" font-size="14" lengthAdjust="spacing" textLength="447" x="754.5" y="80.292">parsearArchivo(lineas: List&lt;String[]&gt;): List&lt;GestorEntidades&gt;</text><rect fill="#F24D5C" height="6" style="stroke:#C82930;stroke-width:1.0;" width="6" x="742.5" y="90.2422"/><text fill="#000000" font-family="sans-serif" font-size="14" lengthAdjust="spacing" textLength="328" x="754.5" y="96.5889">parsearLinea(linea: String[]): GestorEntidades</text><ellipse cx="745.5" cy="109.5391" fill="#84BE84" rx="3" ry="3" style="stroke:#038048;stroke-width:1.0;"/><text fill="#000000" font-family="sans-serif" font-size="14" lengthAdjust="spacing" textLength="499" x="754.5" y="112.8857">getDatos(path: String, separator: Character): List&lt;GestorEntidades&gt;</text></g><!--link Localizacion to Provincia--><g id="link_Localizacion_Provincia"><path codeLine="120" d="M603.191,796.272 C631.784,865.08 672.89,994.717 629,1094 C619.118,1116.355 600.731,1135.5792 582.392,1150.5214 " fill="none" id="Localizacion-to-Provincia" style="stroke:#181818;stroke-width:1.0;"/><polygon fill="#181818" points="578.236,1153.8376,587.7658,1151.351,582.1443,1150.7191,582.7762,1145.0977,578.236,1153.8376" style="stroke:#181818;stroke-width:1.0;"/></g><!--link Localizacion to Departamento--><g id="link_Localizacion_Departamento"><path codeLine="121" d="M572.818,796.334 C562.906,854.279 546.338,951.137 536.665,1007.688 " fill="none" id="Localizacion-to-Departamento" style="stroke:#181818;stroke-width:1.0;"/><polygon fill="#181818" points="535.809,1012.696,541.2689,1004.4991,536.6518,1007.7675,533.3833,1003.1505,535.809,1012.696" style="stroke:#181818;stroke-width:1.0;"/></g><!--link Localizacion to Municipio--><g id="link_Localizacion_Municipio"><path codeLine="122" d="M526.758,796.27 C506.505,814.106 483.441,834.419 462.873,852.532 " fill="none" id="Localizacion-to-Municipio" style="stroke:#181818;stroke-width:1.0;"/><polygon fill="#181818" points="459.063,855.888,468.4612,852.9427,462.8157,852.5839,463.1745,846.9384,459.063,855.888" style="stroke:#181818;stroke-width:1.0;"/></g><!--reverse link Comunidad to Miembro--><g id="link_Comunidad_Miembro"><path codeLine="125" d="M209.934,123.86 C224.498,150.92 241.142,181.86 253.211,204.29 " fill="none" id="Comunidad-backto-Miembro" style="stroke:#181818;stroke-width:1.0;"/><polygon fill="#181818" points="203.627,112.13,202.9465,119.3089,209.3114,122.6982,209.9919,115.5193,203.627,112.13" style="stroke:#181818;stroke-width:1.0;"/><text fill="#000000" font-family="sans-serif" font-size="13" lengthAdjust="spacing" textLength="7" x="242.2166" y="193.5228">*</text></g><!--reverse link Comunidad to Administrador--><g id="link_Comunidad_Administrador"><path codeLine="126" d="M145.719,123.86 C130.997,150.92 114.171,181.86 101.9714,204.29 " fill="none" id="Comunidad-backto-Administrador" style="stroke:#181818;stroke-width:1.0;"/><polygon fill="#181818" points="152.094,112.13,145.7127,115.4883,146.3583,122.6705,152.7396,119.3121,152.094,112.13" style="stroke:#181818;stroke-width:1.0;"/><text fill="#000000" font-family="sans-serif" font-size="13" lengthAdjust="spacing" textLength="7" x="97.6236" y="193.5228">*</text></g><!--link Miembro to Persona--><g id="link_Miembro_Persona"><path codeLine="128" d="M252.942,268.864 C239.652,293.3 220.912,327.759 205.373,356.331 " fill="none" id="Miembro-to-Persona" style="stroke:#181818;stroke-width:1.0;"/><polygon fill="#181818" points="202.908,360.863,210.7213,354.867,205.2965,356.4704,203.6931,351.0455,202.908,360.863" style="stroke:#181818;stroke-width:1.0;"/></g><!--link Administrador to Persona--><g id="link_Administrador_Persona"><path codeLine="129" d="M101.8742,268.864 C115.021,293.3 133.561,327.759 148.932,356.331 " fill="none" id="Administrador-to-Persona" style="stroke:#181818;stroke-width:1.0;"/><polygon fill="#181818" points="151.371,360.863,150.6298,351.0421,149.0022,356.4597,143.5846,354.8321,151.371,360.863" style="stroke:#181818;stroke-width:1.0;"/></g><!--link Persona to Usuario--><g id="link_Persona_Usuario"><path codeLine="131" d="M253.046,458.133 C293.689,483.591 343.294,514.662 382.554,539.253 " fill="none" id="Persona-to-Usuario" style="stroke:#181818;stroke-width:1.0;"/><polygon fill="#181818" points="386.803,541.915,381.2994,533.7473,382.5657,539.2606,377.0524,540.527,386.803,541.915" style="stroke:#181818;stroke-width:1.0;"/></g><!--link Persona to Localizacion--><g id="link_Persona_Localizacion"><path codeLine="132" d="M205.515,458.186 C237.488,508.427 293.403,587.291 358,639 C388.265,663.227 424.887,683.727 459.629,700.119 " fill="none" id="Persona-to-Localizacion" style="stroke:#181818;stroke-width:1.0;"/><polygon fill="#181818" points="464.297,702.302,457.8391,694.8659,459.7678,700.1838,454.45,702.1126,464.297,702.302" style="stroke:#181818;stroke-width:1.0;"/><text fill="#000000" font-family="sans-serif" font-size="13" lengthAdjust="spacing" textLength="7" x="449.5965" y="696.0007">*</text></g><!--link Persona to Servicio--><g id="link_Persona_Servicio"><path codeLine="133" d="M177,458.284 C177,523.135 177,638.173 177,701.532 " fill="none" id="Persona-to-Servicio" style="stroke:#181818;stroke-width:1.0;"/><polygon fill="#181818" points="177,706.751,181,697.751,177,701.751,173,697.751,177,706.751" style="stroke:#181818;stroke-width:1.0;"/><text fill="#000000" font-family="sans-serif" font-size="13" lengthAdjust="spacing" textLength="7" x="169.4203" y="695.8713">*</text></g><!--link Entidad to Localizacion--><g id="link_Entidad_Localizacion"><path codeLine="136" d="M675.001,466.026 C651.897,482.351 630.05,502.323 615,526 C582.923,576.463 577.169,646.248 577.655,693.701 " fill="none" id="Entidad-to-Localizacion" style="stroke:#181818;stroke-width:1.0;"/><polygon fill="#181818" points="577.732,698.797,581.5952,689.7375,577.6563,693.7976,573.5961,689.8586,577.732,698.797" style="stroke:#181818;stroke-width:1.0;"/><text fill="#000000" font-family="sans-serif" font-size="13" lengthAdjust="spacing" textLength="8" x="568.7099" y="687.9774">1</text></g><!--link Entidad to Establecimiento--><g id="link_Entidad_Establecimiento"><path codeLine="137" d="M837.324,466.019 C853.514,483.88 871.515,503.739 887.96,521.882 " fill="none" id="Entidad-to-Establecimiento" style="stroke:#181818;stroke-width:1.0;"/><polygon fill="#181818" points="891.663,525.967,888.5811,516.6128,888.3045,522.2628,882.6545,521.9863,891.663,525.967" style="stroke:#181818;stroke-width:1.0;"/><text fill="#000000" font-family="sans-serif" font-size="13" lengthAdjust="spacing" textLength="7" x="877.7651" y="514.8262">*</text></g><!--link Entidad to TipoEntidad--><g id="link_Entidad_TipoEntidad"><path codeLine="138" d="M763.948,466.019 C755.551,486.242 746.091,509.028 737.805,528.983 " fill="none" id="Entidad-to-TipoEntidad" style="stroke:#181818;stroke-width:1.0;"/><polygon fill="#181818" points="735.836,533.725,742.9815,526.947,737.7534,529.1073,735.5931,523.8791,735.836,533.725" style="stroke:#181818;stroke-width:1.0;"/></g><!--link Establecimiento to TipoEstablecimiento--><g id="link_Establecimiento_TipoEstablecimiento"><path codeLine="141" d="M942,639.139 C942,659.456 942,682.164 942,701.445 " fill="none" id="Establecimiento-to-TipoEstablecimiento" style="stroke:#181818;stroke-width:1.0;"/><polygon fill="#181818" points="942,706.788,946,697.788,942,701.788,938,697.788,942,706.788" style="stroke:#181818;stroke-width:1.0;"/></g><!--link Establecimiento to Localizacion--><g id="link_Establecimiento_Localizacion"><path codeLine="142" d="M834.177,632.185 C788.983,652.591 736.491,676.292 691.06,696.805 " fill="none" id="Establecimiento-to-Localizacion" style="stroke:#181818;stroke-width:1.0;"/><polygon fill="#181818" points="686.405,698.907,696.2537,698.8473,690.9617,696.8486,692.9603,691.5566,686.405,698.907" style="stroke:#181818;stroke-width:1.0;"/><text fill="#000000" font-family="sans-serif" font-size="13" lengthAdjust="spacing" textLength="8" x="692.6651" y="688.1028">1</text></g><!--link Establecimiento to Servicio--><g id="link_Establecimiento_Servicio"><path codeLine="143" d="M834.241,633.379 C828.46,635.414 822.689,637.307 817,639 C657.331,686.527 611.262,671.234 447,699 C390.853,708.491 328.215,719.485 277.416,728.505 " fill="none" id="Establecimiento-to-Servicio" style="stroke:#181818;stroke-width:1.0;"/><polygon fill="#181818" points="272.225,729.427,281.7864,731.7889,277.1477,728.5513,280.3853,723.9126,272.225,729.427" style="stroke:#181818;stroke-width:1.0;"/><text fill="#000000" font-family="sans-serif" font-size="13" lengthAdjust="spacing" textLength="7" x="280.0921" y="724.4775">*</text></g><!--link GestorEntidades to Usuario--><g id="link_GestorEntidades_Usuario"><path codeLine="145" d="M682.497,293.161 C655.781,310.231 628.326,330.517 606,353 C564.206,395.087 568.378,416.97 535,466 C518.581,490.118 499.383,516.358 483.39,537.723 " fill="none" id="GestorEntidades-to-Usuario" style="stroke:#181818;stroke-width:1.0;"/><polygon fill="#181818" points="480.236,541.929,488.836,537.129,483.236,537.929,482.436,532.329,480.236,541.929" style="stroke:#181818;stroke-width:1.0;"/></g><!--link GestorEntidades to Designado--><g id="link_GestorEntidades_Designado"><path codeLine="146" d="M674.286,288.908 C633.216,308.264 586.655,330.941 545,353 C532.221,359.767 518.692,367.386 505.975,374.76 " fill="none" id="GestorEntidades-to-Designado" style="stroke:#181818;stroke-width:1.0;"/><polygon fill="#181818" points="501.329,377.463,511.1194,376.3919,505.6501,374.9475,507.0946,369.4781,501.329,377.463" style="stroke:#181818;stroke-width:1.0;"/></g><!--link Designado to Usuario--><g id="link_Designado_Usuario"><path codeLine="147" d="M450,441.864 C450,468.479 450,506.982 450,536.819 " fill="none" id="Designado-to-Usuario" style="stroke:#181818;stroke-width:1.0;"/><polygon fill="#181818" points="450,541.907,454,532.907,450,536.907,446,532.907,450,541.907" style="stroke:#181818;stroke-width:1.0;"/></g><!--link GestorEntidades to Entidad--><g id="link_GestorEntidades_Entidad"><path codeLine="149" d="M787,293.019 C787,310.579 787,330.072 787,347.966 " fill="none" id="GestorEntidades-to-Entidad" style="stroke:#181818;stroke-width:1.0;"/><polygon fill="#181818" points="787,352.967,791,343.967,787,347.967,783,343.967,787,352.967" style="stroke:#181818;stroke-width:1.0;"/><text fill="#000000" font-family="sans-serif" font-size="13" lengthAdjust="spacing" textLength="7" x="779.5516" y="341.8262">*</text></g><!--link GestorEntidades to TipoGestor--><g id="link_GestorEntidades_TipoGestor"><path codeLine="150" d="M877.179,293.164 C906.457,311.733 938.888,332.837 968,353 C973.9,357.086 979.994,361.437 986.036,365.835 " fill="none" id="GestorEntidades-to-TipoGestor" style="stroke:#181818;stroke-width:1.0;"/><polygon fill="#181818" points="990.208,368.885,985.3032,360.3443,986.1716,365.9341,980.5818,366.8025,990.208,368.885" style="stroke:#181818;stroke-width:1.0;"/></g><!--link Departamento to Provincia--><g id="link_Departamento_Provincia"><path codeLine="153" d="M529,1094.008 C529,1111.413 529,1131.727 529,1148.7406 " fill="none" id="Departamento-to-Provincia" style="stroke:#181818;stroke-width:1.0;"/><polygon fill="#181818" points="529,1153.9078,533,1144.9078,529,1148.9078,525,1144.9078,529,1153.9078" style="stroke:#181818;stroke-width:1.0;"/></g><!--link Municipio to Departamento--><g id="link_Municipio_Departamento"><path codeLine="154" d="M445.259,953.227 C460.381,971.153 477.477,991.421 492.262,1008.948 " fill="none" id="Municipio-to-Departamento" style="stroke:#181818;stroke-width:1.0;"/><polygon fill="#181818" points="495.575,1012.876,492.8284,1003.4179,492.3507,1009.0545,486.714,1008.5768,495.575,1012.876" style="stroke:#181818;stroke-width:1.0;"/></g><!--link Municipio to Provincia--><g id="link_Municipio_Provincia"><path codeLine="155" d="M401.832,953.122 C401.213,992.948 405.189,1050.123 428,1094 C439.488,1116.097 458.665,1135.4386 477.241,1150.542 " fill="none" id="Municipio-to-Provincia" style="stroke:#181818;stroke-width:1.0;"/><polygon fill="#181818" points="481.442,1153.8954,476.9047,1145.154,477.5347,1150.7756,471.913,1151.4056,481.442,1153.8954" style="stroke:#181818;stroke-width:1.0;"/></g><!--link Servicio to EstadoServicio--><g id="link_Servicio_EstadoServicio"><path codeLine="157" d="M177,788.014 C177,807.032 177,830.104 177,850.611 " fill="none" id="Servicio-to-EstadoServicio" style="stroke:#181818;stroke-width:1.0;"/><polygon fill="#181818" points="177,855.765,181,846.765,177,850.765,173,846.765,177,855.765" style="stroke:#181818;stroke-width:1.0;"/><text fill="#000000" font-family="sans-serif" font-size="13" lengthAdjust="spacing" textLength="8" x="168.4375" y="844.9409">1</text></g><!--link ParserDatos to LectorCSV--><g id="link_ParserDatos_LectorCSV"><path codeLine="159" d="M1049.92,120.02 C1067.09,138.03 1086.2,158.07 1103.61,176.34 " fill="none" id="ParserDatos-to-LectorCSV" style="stroke:#181818;stroke-width:1.0;"/><polygon fill="#181818" points="1107.07,179.97,1103.7396,170.7013,1103.6139,176.3568,1097.9584,176.2311,1107.07,179.97" style="stroke:#181818;stroke-width:1.0;"/></g><!--link ParserDatos to GestorEntidades--><g id="link_ParserDatos_GestorEntidades"><path codeLine="160" d="M928.819,120.02 C906.516,138.18 881.675,158.41 859.094,176.8 " fill="none" id="ParserDatos-to-GestorEntidades" style="stroke:#181818;stroke-width:1.0;stroke-dasharray:7.0,7.0;"/><polygon fill="#181818" points="855.198,179.97,864.7054,177.3991,859.0786,176.817,859.6607,171.1902,855.198,179.97" style="stroke:#181818;stroke-width:1.0;"/></g><!--link ParserDatos to TipoGestor--><g id="link_ParserDatos_TipoGestor"><path codeLine="161" d="M1004.28,120.15 C1013.15,187.94 1027.95,301.112 1036.13,363.612 " fill="none" id="ParserDatos-to-TipoGestor" style="stroke:#181818;stroke-width:1.0;stroke-dasharray:7.0,7.0;"/><polygon fill="#181818" points="1036.8,368.76,1039.5986,359.3171,1036.1513,363.8023,1031.6662,360.355,1036.8,368.76" style="stroke:#181818;stroke-width:1.0;"/></g><!--SRC=[XLLRQzim57xNhp1zwfgbi5Sp0cxY5eDZ1plPmqefgYrIWM_8JWSh- -yxiYJhOY_BIwHpldF_ZbnKkE-zi1beYSjFvAsRjdvZnFVoWT7c38AgBN15V-E2jetlnSODbAGVy5j52bfJqWnj3m3Q3zz3Mxm1v42xLeRnVE-eR-WFGgIvrAOC4e5V72LXy9gV7evXbWL9c1hIHn2bso3BedYKfjbJa4G_WssK9jmZAiR2zfU65hIZBNXSkQMjIj9XDk2Qv-XxE-C6oewr7xGfAFQzWpfopyAn2LxqVTry4YtOJY2dYulJuMsLxRJH_vjSJzW7j6OQMIxl6tiUinJ2_2YQxEMdxIdBWrWdh7o8yQrBqXUCTYAyofWhE6jAI3iS_vNL5DWM2sUxA3-aIVGGX-CrILyToJv8Zc4IxQCmEQOwfMrR0mKcIiqQo6KLr8-3igOD71Y4PWIwOWaCu9uISC7x9aywc6N2nzKHrhSDfu0u88sLneieWsKzFJVWZSCk_GKp2cqxYOD1SsaeQvm1HVB6_4c_8r4paB7GSVmcEpR2O6A8YxMe8ZEGeQOC26jWEUm-Tm3yrR9opdGpEhXOt1tlshRMQizzlVBQ_HCGhcNoRI7zrJQLgkM-xhvahR9NZvowotxnLPHFcmXeRP8GGUYKdJ6Gf0Ql1oOsWHaZZqa1k6t-urCrRNYtszZpoZ60V6_x3gS2PeD6rQeYX0MiUASVxUqNDQtHLEIumc-CceX7Mf6CG17CeEO1CvZV3aAeLbLZKhvE3gda08adXnLj2EwjkCyl6vM8CuMDvIBcfiA1glRv1ImT8r75cGnZThTcSxvwIutvPt2ercITjrvl3BBDL1RTPbhDEOIc5yUxMwzlxcwcPsAci5yO974Y4_aIM11BW-HX52e66p8Um7ho7TtqwYAaFijSyysnCdLWvNva3BNrJGUdDb8ZN0zpt3o91OnLWZDTgoTBEhtPqycoMJ8QovVbBVaqzXuXaouEjIQkp7bbgxG9KfMgxZWVJcHix6YgzzJKtDzlPllawdKLVm40]--></g></svg>