<?xml version="1.0" encoding="us-ascii" standalone="no"?><svg xmlns="http://www.w3.org/2000/svg" xmlns:xlink="http://www.w3.org/1999/xlink" contentStyleType="text/css" height="407px" preserveAspectRatio="none" style="width:837px;height:407px;background:#FFFFFF;" version="1.1" viewBox="0 0 837 407" width="837px" zoomAndPan="magnify"><defs/><g><!--class ListadoDeProvincias--><g id="elem_ListadoDeProvincias"><rect codeLine="1" fill="#F1F1F1" height="64.2969" id="ListadoDeProvincias" rx="2.5" ry="2.5" style="stroke:#181818;stroke-width:0.5;" width="221" x="7" y="180"/><ellipse cx="42.25" cy="196" fill="#ADD1B2" rx="11" ry="11" style="stroke:#181818;stroke-width:1.0;"/><path d="M44.5938,191.6719 C43.6563,191.2344 43.0625,191.0938 42.1875,191.0938 C39.5625,191.0938 37.5625,193.1719 37.5625,195.8906 L37.5625,197.0156 C37.5625,199.5938 39.6719,201.4844 42.5625,201.4844 C43.7813,201.4844 44.9375,201.1875 45.6875,200.6406 C46.2656,200.2344 46.5938,199.7813 46.5938,199.3906 C46.5938,198.9375 46.2031,198.5469 45.7344,198.5469 C45.5156,198.5469 45.3125,198.625 45.125,198.8125 C44.6719,199.2969 44.6719,199.2969 44.4844,199.3906 C44.0625,199.6563 43.375,199.7813 42.6094,199.7813 C40.5625,199.7813 39.2656,198.6875 39.2656,196.9844 L39.2656,195.8906 C39.2656,194.1094 40.5156,192.7969 42.25,192.7969 C42.8281,192.7969 43.4375,192.9531 43.9063,193.2031 C44.3906,193.4844 44.5625,193.7031 44.6563,194.1094 C44.7188,194.5156 44.75,194.6406 44.8906,194.7656 C45.0313,194.9063 45.2656,195.0156 45.4844,195.0156 C45.75,195.0156 46.0156,194.875 46.1875,194.6563 C46.2969,194.5 46.3281,194.3125 46.3281,193.8906 L46.3281,192.4688 C46.3281,192.0313 46.3125,191.9063 46.2188,191.75 C46.0625,191.4844 45.7813,191.3438 45.4844,191.3438 C45.1875,191.3438 44.9844,191.4375 44.7656,191.75 L44.5938,191.6719 Z " fill="#000000"/><text fill="#000000" font-family="sans-serif" font-size="14" lengthAdjust="spacing" textLength="144" x="60.75" y="200.8467">ListadoDeProvincias</text><line style="stroke:#181818;stroke-width:0.5;" x1="8" x2="227" y1="212" y2="212"/><ellipse cx="18" cy="225.6484" fill="none" rx="3" ry="3" style="stroke:#038048;stroke-width:1.0;"/><text fill="#000000" font-family="sans-serif" font-size="14" lengthAdjust="spacing" textLength="195" x="27" y="228.9951">provincias: List&lt;Provincia&gt;</text><line style="stroke:#181818;stroke-width:0.5;" x1="8" x2="227" y1="236.2969" y2="236.2969"/></g><!--class ListadoDeDepartamentos--><g id="elem_ListadoDeDepartamentos"><rect codeLine="5" fill="#F1F1F1" height="64.2969" id="ListadoDeDepartamentos" rx="2.5" ry="2.5" style="stroke:#181818;stroke-width:0.5;" width="302" x="263.5" y="180"/><ellipse cx="317.25" cy="196" fill="#ADD1B2" rx="11" ry="11" style="stroke:#181818;stroke-width:1.0;"/><path d="M319.5938,191.6719 C318.6563,191.2344 318.0625,191.0938 317.1875,191.0938 C314.5625,191.0938 312.5625,193.1719 312.5625,195.8906 L312.5625,197.0156 C312.5625,199.5938 314.6719,201.4844 317.5625,201.4844 C318.7813,201.4844 319.9375,201.1875 320.6875,200.6406 C321.2656,200.2344 321.5938,199.7813 321.5938,199.3906 C321.5938,198.9375 321.2031,198.5469 320.7344,198.5469 C320.5156,198.5469 320.3125,198.625 320.125,198.8125 C319.6719,199.2969 319.6719,199.2969 319.4844,199.3906 C319.0625,199.6563 318.375,199.7813 317.6094,199.7813 C315.5625,199.7813 314.2656,198.6875 314.2656,196.9844 L314.2656,195.8906 C314.2656,194.1094 315.5156,192.7969 317.25,192.7969 C317.8281,192.7969 318.4375,192.9531 318.9063,193.2031 C319.3906,193.4844 319.5625,193.7031 319.6563,194.1094 C319.7188,194.5156 319.75,194.6406 319.8906,194.7656 C320.0313,194.9063 320.2656,195.0156 320.4844,195.0156 C320.75,195.0156 321.0156,194.875 321.1875,194.6563 C321.2969,194.5 321.3281,194.3125 321.3281,193.8906 L321.3281,192.4688 C321.3281,192.0313 321.3125,191.9063 321.2188,191.75 C321.0625,191.4844 320.7813,191.3438 320.4844,191.3438 C320.1875,191.3438 319.9844,191.4375 319.7656,191.75 L319.5938,191.6719 Z " fill="#000000"/><text fill="#000000" font-family="sans-serif" font-size="14" lengthAdjust="spacing" textLength="186" x="337.75" y="200.8467">ListadoDeDepartamentos</text><line style="stroke:#181818;stroke-width:0.5;" x1="264.5" x2="564.5" y1="212" y2="212"/><ellipse cx="274.5" cy="225.6484" fill="none" rx="3" ry="3" style="stroke:#038048;stroke-width:1.0;"/><text fill="#000000" font-family="sans-serif" font-size="14" lengthAdjust="spacing" textLength="276" x="283.5" y="228.9951">departamentos: List&lt;Departamento&gt;</text><line style="stroke:#181818;stroke-width:0.5;" x1="264.5" x2="564.5" y1="236.2969" y2="236.2969"/></g><!--class ListadoDeMunicipios--><g id="elem_ListadoDeMunicipios"><rect codeLine="9" fill="#F1F1F1" height="64.2969" id="ListadoDeMunicipios" rx="2.5" ry="2.5" style="stroke:#181818;stroke-width:0.5;" width="230" x="600.5" y="180"/><ellipse cx="638.45" cy="196" fill="#ADD1B2" rx="11" ry="11" style="stroke:#181818;stroke-width:1.0;"/><path d="M640.7938,191.6719 C639.8563,191.2344 639.2625,191.0938 638.3875,191.0938 C635.7625,191.0938 633.7625,193.1719 633.7625,195.8906 L633.7625,197.0156 C633.7625,199.5938 635.8719,201.4844 638.7625,201.4844 C639.9813,201.4844 641.1375,201.1875 641.8875,200.6406 C642.4656,200.2344 642.7938,199.7813 642.7938,199.3906 C642.7938,198.9375 642.4031,198.5469 641.9344,198.5469 C641.7156,198.5469 641.5125,198.625 641.325,198.8125 C640.8719,199.2969 640.8719,199.2969 640.6844,199.3906 C640.2625,199.6563 639.575,199.7813 638.8094,199.7813 C636.7625,199.7813 635.4656,198.6875 635.4656,196.9844 L635.4656,195.8906 C635.4656,194.1094 636.7156,192.7969 638.45,192.7969 C639.0281,192.7969 639.6375,192.9531 640.1063,193.2031 C640.5906,193.4844 640.7625,193.7031 640.8563,194.1094 C640.9188,194.5156 640.95,194.6406 641.0906,194.7656 C641.2313,194.9063 641.4656,195.0156 641.6844,195.0156 C641.95,195.0156 642.2156,194.875 642.3875,194.6563 C642.4969,194.5 642.5281,194.3125 642.5281,193.8906 L642.5281,192.4688 C642.5281,192.0313 642.5125,191.9063 642.4188,191.75 C642.2625,191.4844 641.9813,191.3438 641.6844,191.3438 C641.3875,191.3438 641.1844,191.4375 640.9656,191.75 L640.7938,191.6719 Z " fill="#000000"/><text fill="#000000" font-family="sans-serif" font-size="14" lengthAdjust="spacing" textLength="147" x="657.55" y="200.8467">ListadoDeMunicipios</text><line style="stroke:#181818;stroke-width:0.5;" x1="601.5" x2="829.5" y1="212" y2="212"/><ellipse cx="611.5" cy="225.6484" fill="none" rx="3" ry="3" style="stroke:#038048;stroke-width:1.0;"/><text fill="#000000" font-family="sans-serif" font-size="14" lengthAdjust="spacing" textLength="204" x="620.5" y="228.9951">localidades: List&lt;Municipio&gt;</text><line style="stroke:#181818;stroke-width:0.5;" x1="601.5" x2="829.5" y1="236.2969" y2="236.2969"/></g><!--class Provincia--><g id="elem_Provincia"><rect codeLine="13" fill="#F1F1F1" height="80.5938" id="Provincia" rx="2.5" ry="2.5" style="stroke:#181818;stroke-width:0.5;" width="136" x="49.5" y="312"/><ellipse cx="82.05" cy="328" fill="#ADD1B2" rx="11" ry="11" style="stroke:#181818;stroke-width:1.0;"/><path d="M84.3938,323.6719 C83.4563,323.2344 82.8625,323.0938 81.9875,323.0938 C79.3625,323.0938 77.3625,325.1719 77.3625,327.8906 L77.3625,329.0156 C77.3625,331.5938 79.4719,333.4844 82.3625,333.4844 C83.5813,333.4844 84.7375,333.1875 85.4875,332.6406 C86.0656,332.2344 86.3938,331.7813 86.3938,331.3906 C86.3938,330.9375 86.0031,330.5469 85.5344,330.5469 C85.3156,330.5469 85.1125,330.625 84.925,330.8125 C84.4719,331.2969 84.4719,331.2969 84.2844,331.3906 C83.8625,331.6563 83.175,331.7813 82.4094,331.7813 C80.3625,331.7813 79.0656,330.6875 79.0656,328.9844 L79.0656,327.8906 C79.0656,326.1094 80.3156,324.7969 82.05,324.7969 C82.6281,324.7969 83.2375,324.9531 83.7063,325.2031 C84.1906,325.4844 84.3625,325.7031 84.4563,326.1094 C84.5188,326.5156 84.55,326.6406 84.6906,326.7656 C84.8313,326.9063 85.0656,327.0156 85.2844,327.0156 C85.55,327.0156 85.8156,326.875 85.9875,326.6563 C86.0969,326.5 86.1281,326.3125 86.1281,325.8906 L86.1281,324.4688 C86.1281,324.0313 86.1125,323.9063 86.0188,323.75 C85.8625,323.4844 85.5813,323.3438 85.2844,323.3438 C84.9875,323.3438 84.7844,323.4375 84.5656,323.75 L84.3938,323.6719 Z " fill="#000000"/><text fill="#000000" font-family="sans-serif" font-size="14" lengthAdjust="spacing" textLength="65" x="99.95" y="332.8467">Provincia</text><line style="stroke:#181818;stroke-width:0.5;" x1="50.5" x2="184.5" y1="344" y2="344"/><ellipse cx="60.5" cy="357.6484" fill="none" rx="3" ry="3" style="stroke:#038048;stroke-width:1.0;"/><text fill="#000000" font-family="sans-serif" font-size="14" lengthAdjust="spacing" textLength="42" x="69.5" y="360.9951">id: Int</text><ellipse cx="60.5" cy="373.9453" fill="none" rx="3" ry="3" style="stroke:#038048;stroke-width:1.0;"/><text fill="#000000" font-family="sans-serif" font-size="14" lengthAdjust="spacing" textLength="110" x="69.5" y="377.292">nombre: String</text><line style="stroke:#181818;stroke-width:0.5;" x1="50.5" x2="184.5" y1="384.5938" y2="384.5938"/></g><!--class Departamento--><g id="elem_Departamento"><rect codeLine="18" fill="#F1F1F1" height="96.8906" id="Departamento" rx="2.5" ry="2.5" style="stroke:#181818;stroke-width:0.5;" width="141" x="344" y="304"/><ellipse cx="359.9" cy="320" fill="#ADD1B2" rx="11" ry="11" style="stroke:#181818;stroke-width:1.0;"/><path d="M362.2438,315.6719 C361.3063,315.2344 360.7125,315.0938 359.8375,315.0938 C357.2125,315.0938 355.2125,317.1719 355.2125,319.8906 L355.2125,321.0156 C355.2125,323.5938 357.3219,325.4844 360.2125,325.4844 C361.4313,325.4844 362.5875,325.1875 363.3375,324.6406 C363.9156,324.2344 364.2438,323.7813 364.2438,323.3906 C364.2438,322.9375 363.8531,322.5469 363.3844,322.5469 C363.1656,322.5469 362.9625,322.625 362.775,322.8125 C362.3219,323.2969 362.3219,323.2969 362.1344,323.3906 C361.7125,323.6563 361.025,323.7813 360.2594,323.7813 C358.2125,323.7813 356.9156,322.6875 356.9156,320.9844 L356.9156,319.8906 C356.9156,318.1094 358.1656,316.7969 359.9,316.7969 C360.4781,316.7969 361.0875,316.9531 361.5563,317.2031 C362.0406,317.4844 362.2125,317.7031 362.3063,318.1094 C362.3688,318.5156 362.4,318.6406 362.5406,318.7656 C362.6813,318.9063 362.9156,319.0156 363.1344,319.0156 C363.4,319.0156 363.6656,318.875 363.8375,318.6563 C363.9469,318.5 363.9781,318.3125 363.9781,317.8906 L363.9781,316.4688 C363.9781,316.0313 363.9625,315.9063 363.8688,315.75 C363.7125,315.4844 363.4313,315.3438 363.1344,315.3438 C362.8375,315.3438 362.6344,315.4375 362.4156,315.75 L362.2438,315.6719 Z " fill="#000000"/><text fill="#000000" font-family="sans-serif" font-size="14" lengthAdjust="spacing" textLength="107" x="374.1" y="324.8467">Departamento</text><line style="stroke:#181818;stroke-width:0.5;" x1="345" x2="484" y1="336" y2="336"/><ellipse cx="355" cy="349.6484" fill="none" rx="3" ry="3" style="stroke:#038048;stroke-width:1.0;"/><text fill="#000000" font-family="sans-serif" font-size="14" lengthAdjust="spacing" textLength="42" x="364" y="352.9951">id: int</text><ellipse cx="355" cy="365.9453" fill="none" rx="3" ry="3" style="stroke:#038048;stroke-width:1.0;"/><text fill="#000000" font-family="sans-serif" font-size="14" lengthAdjust="spacing" textLength="110" x="364" y="369.292">nombre: String</text><ellipse cx="355" cy="382.2422" fill="none" rx="3" ry="3" style="stroke:#038048;stroke-width:1.0;"/><text fill="#000000" font-family="sans-serif" font-size="14" lengthAdjust="spacing" textLength="115" x="364" y="385.5889">provincia_id: int</text><line style="stroke:#181818;stroke-width:0.5;" x1="345" x2="484" y1="392.8906" y2="392.8906"/></g><!--class Municipio--><g id="elem_Municipio"><rect codeLine="24" fill="#F1F1F1" height="96.8906" id="Municipio" rx="2.5" ry="2.5" style="stroke:#181818;stroke-width:0.5;" width="213" x="609" y="304"/><ellipse cx="677.25" cy="320" fill="#ADD1B2" rx="11" ry="11" style="stroke:#181818;stroke-width:1.0;"/><path d="M679.5938,315.6719 C678.6563,315.2344 678.0625,315.0938 677.1875,315.0938 C674.5625,315.0938 672.5625,317.1719 672.5625,319.8906 L672.5625,321.0156 C672.5625,323.5938 674.6719,325.4844 677.5625,325.4844 C678.7813,325.4844 679.9375,325.1875 680.6875,324.6406 C681.2656,324.2344 681.5938,323.7813 681.5938,323.3906 C681.5938,322.9375 681.2031,322.5469 680.7344,322.5469 C680.5156,322.5469 680.3125,322.625 680.125,322.8125 C679.6719,323.2969 679.6719,323.2969 679.4844,323.3906 C679.0625,323.6563 678.375,323.7813 677.6094,323.7813 C675.5625,323.7813 674.2656,322.6875 674.2656,320.9844 L674.2656,319.8906 C674.2656,318.1094 675.5156,316.7969 677.25,316.7969 C677.8281,316.7969 678.4375,316.9531 678.9063,317.2031 C679.3906,317.4844 679.5625,317.7031 679.6563,318.1094 C679.7188,318.5156 679.75,318.6406 679.8906,318.7656 C680.0313,318.9063 680.2656,319.0156 680.4844,319.0156 C680.75,319.0156 681.0156,318.875 681.1875,318.6563 C681.2969,318.5 681.3281,318.3125 681.3281,317.8906 L681.3281,316.4688 C681.3281,316.0313 681.3125,315.9063 681.2188,315.75 C681.0625,315.4844 680.7813,315.3438 680.4844,315.3438 C680.1875,315.3438 679.9844,315.4375 679.7656,315.75 L679.5938,315.6719 Z " fill="#000000"/><text fill="#000000" font-family="sans-serif" font-size="14" lengthAdjust="spacing" textLength="68" x="697.75" y="324.8467">Municipio</text><line style="stroke:#181818;stroke-width:0.5;" x1="610" x2="821" y1="336" y2="336"/><ellipse cx="620" cy="349.6484" fill="none" rx="3" ry="3" style="stroke:#038048;stroke-width:1.0;"/><text fill="#000000" font-family="sans-serif" font-size="14" lengthAdjust="spacing" textLength="119" x="629" y="352.9951">municipio_id: int</text><ellipse cx="620" cy="365.9453" fill="none" rx="3" ry="3" style="stroke:#038048;stroke-width:1.0;"/><text fill="#000000" font-family="sans-serif" font-size="14" lengthAdjust="spacing" textLength="187" x="629" y="369.292">municipio_nombre: String</text><ellipse cx="620" cy="382.2422" fill="none" rx="3" ry="3" style="stroke:#038048;stroke-width:1.0;"/><text fill="#000000" font-family="sans-serif" font-size="14" lengthAdjust="spacing" textLength="154" x="629" y="385.5889">departamento_id: int</text><line style="stroke:#181818;stroke-width:0.5;" x1="610" x2="821" y1="392.8906" y2="392.8906"/></g><!--class Georef--><g id="elem_Georef"><rect codeLine="30" fill="#F1F1F1" height="113.1875" id="Georef" rx="2.5" ry="2.5" style="stroke:#181818;stroke-width:0.5;" width="470" x="179.5" y="7"/><ellipse cx="385.25" cy="23" fill="#ADD1B2" rx="11" ry="11" style="stroke:#181818;stroke-width:1.0;"/><path d="M387.5938,18.6719 C386.6563,18.2344 386.0625,18.0938 385.1875,18.0938 C382.5625,18.0938 380.5625,20.1719 380.5625,22.8906 L380.5625,24.0156 C380.5625,26.5938 382.6719,28.4844 385.5625,28.4844 C386.7813,28.4844 387.9375,28.1875 388.6875,27.6406 C389.2656,27.2344 389.5938,26.7813 389.5938,26.3906 C389.5938,25.9375 389.2031,25.5469 388.7344,25.5469 C388.5156,25.5469 388.3125,25.625 388.125,25.8125 C387.6719,26.2969 387.6719,26.2969 387.4844,26.3906 C387.0625,26.6563 386.375,26.7813 385.6094,26.7813 C383.5625,26.7813 382.2656,25.6875 382.2656,23.9844 L382.2656,22.8906 C382.2656,21.1094 383.5156,19.7969 385.25,19.7969 C385.8281,19.7969 386.4375,19.9531 386.9063,20.2031 C387.3906,20.4844 387.5625,20.7031 387.6563,21.1094 C387.7188,21.5156 387.75,21.6406 387.8906,21.7656 C388.0313,21.9063 388.2656,22.0156 388.4844,22.0156 C388.75,22.0156 389.0156,21.875 389.1875,21.6563 C389.2969,21.5 389.3281,21.3125 389.3281,20.8906 L389.3281,19.4688 C389.3281,19.0313 389.3125,18.9063 389.2188,18.75 C389.0625,18.4844 388.7813,18.3438 388.4844,18.3438 C388.1875,18.3438 387.9844,18.4375 387.7656,18.75 L387.5938,18.6719 Z " fill="#000000"/><text fill="#000000" font-family="sans-serif" font-size="14" lengthAdjust="spacing" textLength="50" x="405.75" y="27.8467">Georef</text><line style="stroke:#181818;stroke-width:0.5;" x1="180.5" x2="648.5" y1="39" y2="39"/><line style="stroke:#181818;stroke-width:0.5;" x1="180.5" x2="648.5" y1="47" y2="47"/><ellipse cx="190.5" cy="60.6484" fill="#84BE84" rx="3" ry="3" style="stroke:#038048;stroke-width:1.0;"/><text fill="#000000" font-family="sans-serif" font-size="14" lengthAdjust="spacing" textLength="359" x="199.5" y="63.9951">obtenerTodasLasProvincias(): ListadoDeProvincias</text><ellipse cx="190.5" cy="76.9453" fill="#84BE84" rx="3" ry="3" style="stroke:#038048;stroke-width:1.0;"/><text fill="#000000" font-family="sans-serif" font-size="14" lengthAdjust="spacing" textLength="444" x="199.5" y="80.292">obtenerTodosLasDepartamentos(): ListadoDeDepartamentos</text><rect fill="#F24D5C" height="6" style="stroke:#C82930;stroke-width:1.0;" width="6" x="187.5" y="90.2422"/><text fill="#000000" font-family="sans-serif" font-size="14" lengthAdjust="spacing" textLength="429" x="199.5" y="96.5889">filtrarMunicipios(ListadoDeMunicipios): ListadoDeMunicipios</text><ellipse cx="190.5" cy="109.5391" fill="#84BE84" rx="3" ry="3" style="stroke:#038048;stroke-width:1.0;"/><text fill="#000000" font-family="sans-serif" font-size="14" lengthAdjust="spacing" textLength="367" x="199.5" y="112.8857">obtenerTodosLosMunicipios(): ListadoDeMunicipios</text></g><!--link Georef to ListadoDeProvincias--><g id="link_Georef_ListadoDeProvincias"><path codeLine="38" d="M301.794,120.094 C262.531,139.461 219.72,160.579 185.249,177.582 " fill="none" id="Georef-to-ListadoDeProvincias" style="stroke:#181818;stroke-width:1.0;"/><polygon fill="#181818" points="180.658,179.846,190.499,179.4529,185.1424,177.6345,186.9607,172.2779,180.658,179.846" style="stroke:#181818;stroke-width:1.0;"/></g><!--link Georef to ListadoDeDepartamentos--><g id="link_Georef_ListadoDeDepartamentos"><path codeLine="39" d="M414.5,120.303 C414.5,138.465 414.5,158.147 414.5,174.52 " fill="none" id="Georef-to-ListadoDeDepartamentos" style="stroke:#181818;stroke-width:1.0;"/><polygon fill="#181818" points="414.5,179.938,418.5,170.938,414.5,174.938,410.5,170.938,414.5,179.938" style="stroke:#181818;stroke-width:1.0;"/></g><!--link Georef to ListadoDeMunicipios--><g id="link_Georef_ListadoDeMunicipios"><path codeLine="40" d="M528.724,120.094 C568.515,139.461 611.904,160.579 646.838,177.582 " fill="none" id="Georef-to-ListadoDeMunicipios" style="stroke:#181818;stroke-width:1.0;"/><polygon fill="#181818" points="651.492,179.846,645.1507,172.3102,646.9964,177.6575,641.6491,179.5032,651.492,179.846" style="stroke:#181818;stroke-width:1.0;"/></g><!--link ListadoDeProvincias to Provincia--><g id="link_ListadoDeProvincias_Provincia"><path codeLine="42" d="M117.5,244.082 C117.5,262.537 117.5,286.25 117.5,306.7001 " fill="none" id="ListadoDeProvincias-to-Provincia" style="stroke:#181818;stroke-width:1.0;"/><polygon fill="#181818" points="117.5,311.8238,121.5,302.8238,117.5,306.8238,113.5,302.8238,117.5,311.8238" style="stroke:#181818;stroke-width:1.0;"/><text fill="#000000" font-family="sans-serif" font-size="13" lengthAdjust="spacing" textLength="7" x="109.9203" y="300.9564">*</text></g><!--link ListadoDeDepartamentos to Departamento--><g id="link_ListadoDeDepartamentos_Departamento"><path codeLine="43" d="M414.5,244.082 C414.5,260.193 414.5,280.313 414.5,298.769 " fill="none" id="ListadoDeDepartamentos-to-Departamento" style="stroke:#181818;stroke-width:1.0;"/><polygon fill="#181818" points="414.5,303.9263,418.5,294.9263,414.5,298.9263,410.5,294.9263,414.5,303.9263" style="stroke:#181818;stroke-width:1.0;"/><text fill="#000000" font-family="sans-serif" font-size="13" lengthAdjust="spacing" textLength="7" x="406.9859" y="292.7748">*</text></g><!--link ListadoDeMunicipios to Municipio--><g id="link_ListadoDeMunicipios_Municipio"><path codeLine="44" d="M715.5,244.082 C715.5,260.193 715.5,280.313 715.5,298.769 " fill="none" id="ListadoDeMunicipios-to-Municipio" style="stroke:#181818;stroke-width:1.0;"/><polygon fill="#181818" points="715.5,303.9263,719.5,294.9263,715.5,298.9263,711.5,294.9263,715.5,303.9263" style="stroke:#181818;stroke-width:1.0;"/><text fill="#000000" font-family="sans-serif" font-size="13" lengthAdjust="spacing" textLength="7" x="707.9859" y="292.7748">*</text></g><!--SRC=[TPB1QiCm38RlVWhJKxUI5mYZfy8Oj33exaMrtI58h61xlOoz-vAjjkLLoodv_V-V92jcW1Zr7cC2Iplt6kYAtY34JwNdPpCLeVznFHN7LdqfPThupaqG4epE9ye4oxKRXFiapk73ey492sGW0mDQi2uZYeNbIszpQeEsroy-pM-UndDmlJwcWFwzsdaNEO5IWbt3APiAfJIo8CRySQgmgjrX-TtSavyT1NUvtG2Ta_Ckl965k8TO5xL-wANz_KtHachsqmIR4wMx2mufGAYBM0lBuO2g2fKfCj0_gNbizJknxhgjE99qt3OkELWD9L0Ny-fnLNyU9REpZujAA99zHVa6]--></g></svg>