<?xml version="1.0" encoding="us-ascii" standalone="no"?><svg xmlns="http://www.w3.org/2000/svg" xmlns:xlink="http://www.w3.org/1999/xlink" contentStyleType="text/css" height="235px" preserveAspectRatio="none" style="width:2017px;height:235px;background:#FFFFFF;" version="1.1" viewBox="0 0 2017 235" width="2017px" zoomAndPan="magnify"><defs/><g><!--class ValidadorContrasenias--><g id="elem_ValidadorContrasenias"><rect codeLine="1" fill="#F1F1F1" height="80.5938" id="ValidadorContrasenias" rx="2.5" ry="2.5" style="stroke:#181818;stroke-width:0.5;" width="311" x="7" y="7"/><ellipse cx="78.25" cy="23" fill="#ADD1B2" rx="11" ry="11" style="stroke:#181818;stroke-width:1.0;"/><path d="M80.5938,18.6719 C79.6563,18.2344 79.0625,18.0938 78.1875,18.0938 C75.5625,18.0938 73.5625,20.1719 73.5625,22.8906 L73.5625,24.0156 C73.5625,26.5938 75.6719,28.4844 78.5625,28.4844 C79.7813,28.4844 80.9375,28.1875 81.6875,27.6406 C82.2656,27.2344 82.5938,26.7813 82.5938,26.3906 C82.5938,25.9375 82.2031,25.5469 81.7344,25.5469 C81.5156,25.5469 81.3125,25.625 81.125,25.8125 C80.6719,26.2969 80.6719,26.2969 80.4844,26.3906 C80.0625,26.6563 79.375,26.7813 78.6094,26.7813 C76.5625,26.7813 75.2656,25.6875 75.2656,23.9844 L75.2656,22.8906 C75.2656,21.1094 76.5156,19.7969 78.25,19.7969 C78.8281,19.7969 79.4375,19.9531 79.9063,20.2031 C80.3906,20.4844 80.5625,20.7031 80.6563,21.1094 C80.7188,21.5156 80.75,21.6406 80.8906,21.7656 C81.0313,21.9063 81.2656,22.0156 81.4844,22.0156 C81.75,22.0156 82.0156,21.875 82.1875,21.6563 C82.2969,21.5 82.3281,21.3125 82.3281,20.8906 L82.3281,19.4688 C82.3281,19.0313 82.3125,18.9063 82.2188,18.75 C82.0625,18.4844 81.7813,18.3438 81.4844,18.3438 C81.1875,18.3438 80.9844,18.4375 80.7656,18.75 L80.5938,18.6719 Z " fill="#000000"/><text fill="#000000" font-family="sans-serif" font-size="14" lengthAdjust="spacing" textLength="160" x="98.75" y="27.8467">ValidadorContrasenias</text><line style="stroke:#181818;stroke-width:0.5;" x1="8" x2="317" y1="39" y2="39"/><rect fill="none" height="6" style="stroke:#C82930;stroke-width:1.0;" width="6" x="15" y="49.6484"/><text fill="#000000" font-family="sans-serif" font-size="14" lengthAdjust="spacing" textLength="285" x="27" y="55.9951">estrategias: List&lt;EstrategiaValidacion&gt;</text><line style="stroke:#181818;stroke-width:0.5;" x1="8" x2="317" y1="63.2969" y2="63.2969"/><ellipse cx="18" cy="76.9453" fill="#84BE84" rx="3" ry="3" style="stroke:#038048;stroke-width:1.0;"/><text fill="#000000" font-family="sans-serif" font-size="14" lengthAdjust="spacing" textLength="201" x="27" y="80.292">esValida(String contrasenia)</text></g><!--class EstrategiaValidacion--><g id="elem_EstrategiaValidacion"><rect codeLine="7" fill="#F1F1F1" height="64.2969" id="EstrategiaValidacion" rx="2.5" ry="2.5" style="stroke:#181818;stroke-width:0.5;" width="227" x="1024" y="156.5"/><ellipse cx="1060.6" cy="172.5" fill="#B4A7E5" rx="11" ry="11" style="stroke:#181818;stroke-width:1.0;"/><path d="M1061.5531,169.2813 L1063.2719,169.2813 C1063.6625,169.2813 1063.85,169.25 1063.975,169.1719 C1064.2406,169.0156 1064.3813,168.7344 1064.3813,168.4375 C1064.3813,168.1719 1064.2719,167.9063 1064.0375,167.7344 C1063.8656,167.625 1063.725,167.5938 1063.2719,167.5938 L1058.1313,167.5938 C1057.6938,167.5938 1057.5688,167.6094 1057.4125,167.7031 C1057.1625,167.8594 1057.0063,168.1563 1057.0063,168.4375 C1057.0063,168.7188 1057.1469,168.9688 1057.3656,169.1406 C1057.5219,169.25 1057.7094,169.2813 1058.1313,169.2813 L1059.85,169.2813 L1059.85,175.7969 L1058.1313,175.7969 C1057.6938,175.7969 1057.5688,175.8125 1057.4125,175.9219 C1057.1625,176.0781 1057.0063,176.3594 1057.0063,176.6563 C1057.0063,176.9063 1057.1469,177.1719 1057.3656,177.3281 C1057.5219,177.4531 1057.725,177.5 1058.1313,177.5 L1063.2719,177.5 C1064.0219,177.5 1064.3813,177.2188 1064.3813,176.6563 C1064.3813,176.375 1064.2719,176.125 1064.0375,175.9531 C1063.8656,175.8281 1063.725,175.7969 1063.2719,175.7969 L1061.5531,175.7969 L1061.5531,169.2813 Z " fill="#000000"/><text fill="#000000" font-family="sans-serif" font-size="14" font-style="italic" lengthAdjust="spacing" textLength="147" x="1079.4" y="177.3467">EstrategiaValidacion</text><line style="stroke:#181818;stroke-width:0.5;" x1="1025" x2="1250" y1="188.5" y2="188.5"/><line style="stroke:#181818;stroke-width:0.5;" x1="1025" x2="1250" y1="196.5" y2="196.5"/><ellipse cx="1035" cy="210.1484" fill="#84BE84" rx="3" ry="3" style="stroke:#038048;stroke-width:1.0;"/><text fill="#000000" font-family="sans-serif" font-size="14" lengthAdjust="spacing" textLength="201" x="1044" y="213.4951">esValida(String contrasenia)</text></g><!--class ValidadorCaracteresEspeciales--><g id="elem_ValidadorCaracteresEspeciales"><rect codeLine="11" fill="#F1F1F1" height="48" id="ValidadorCaracteresEspeciales" rx="2.5" ry="2.5" style="stroke:#181818;stroke-width:0.5;" width="252" x="353.5" y="23.5"/><ellipse cx="368.5" cy="39.5" fill="#ADD1B2" rx="11" ry="11" style="stroke:#181818;stroke-width:1.0;"/><path d="M370.8438,35.1719 C369.9063,34.7344 369.3125,34.5938 368.4375,34.5938 C365.8125,34.5938 363.8125,36.6719 363.8125,39.3906 L363.8125,40.5156 C363.8125,43.0938 365.9219,44.9844 368.8125,44.9844 C370.0313,44.9844 371.1875,44.6875 371.9375,44.1406 C372.5156,43.7344 372.8438,43.2813 372.8438,42.8906 C372.8438,42.4375 372.4531,42.0469 371.9844,42.0469 C371.7656,42.0469 371.5625,42.125 371.375,42.3125 C370.9219,42.7969 370.9219,42.7969 370.7344,42.8906 C370.3125,43.1563 369.625,43.2813 368.8594,43.2813 C366.8125,43.2813 365.5156,42.1875 365.5156,40.4844 L365.5156,39.3906 C365.5156,37.6094 366.7656,36.2969 368.5,36.2969 C369.0781,36.2969 369.6875,36.4531 370.1563,36.7031 C370.6406,36.9844 370.8125,37.2031 370.9063,37.6094 C370.9688,38.0156 371,38.1406 371.1406,38.2656 C371.2813,38.4063 371.5156,38.5156 371.7344,38.5156 C372,38.5156 372.2656,38.375 372.4375,38.1563 C372.5469,38 372.5781,37.8125 372.5781,37.3906 L372.5781,35.9688 C372.5781,35.5313 372.5625,35.4063 372.4688,35.25 C372.3125,34.9844 372.0313,34.8438 371.7344,34.8438 C371.4375,34.8438 371.2344,34.9375 371.0156,35.25 L370.8438,35.1719 Z " fill="#000000"/><text fill="#000000" font-family="sans-serif" font-size="14" lengthAdjust="spacing" textLength="220" x="382.5" y="44.3467">ValidadorCaracteresEspeciales</text><line style="stroke:#181818;stroke-width:0.5;" x1="354.5" x2="604.5" y1="55.5" y2="55.5"/><line style="stroke:#181818;stroke-width:0.5;" x1="354.5" x2="604.5" y1="63.5" y2="63.5"/></g><!--class ValidadorFrecuencia--><g id="elem_ValidadorFrecuencia"><rect codeLine="12" fill="#F1F1F1" height="48" id="ValidadorFrecuencia" rx="2.5" ry="2.5" style="stroke:#181818;stroke-width:0.5;" width="176" x="1791.5" y="23.5"/><ellipse cx="1806.5" cy="39.5" fill="#ADD1B2" rx="11" ry="11" style="stroke:#181818;stroke-width:1.0;"/><path d="M1808.8438,35.1719 C1807.9063,34.7344 1807.3125,34.5938 1806.4375,34.5938 C1803.8125,34.5938 1801.8125,36.6719 1801.8125,39.3906 L1801.8125,40.5156 C1801.8125,43.0938 1803.9219,44.9844 1806.8125,44.9844 C1808.0313,44.9844 1809.1875,44.6875 1809.9375,44.1406 C1810.5156,43.7344 1810.8438,43.2813 1810.8438,42.8906 C1810.8438,42.4375 1810.4531,42.0469 1809.9844,42.0469 C1809.7656,42.0469 1809.5625,42.125 1809.375,42.3125 C1808.9219,42.7969 1808.9219,42.7969 1808.7344,42.8906 C1808.3125,43.1563 1807.625,43.2813 1806.8594,43.2813 C1804.8125,43.2813 1803.5156,42.1875 1803.5156,40.4844 L1803.5156,39.3906 C1803.5156,37.6094 1804.7656,36.2969 1806.5,36.2969 C1807.0781,36.2969 1807.6875,36.4531 1808.1563,36.7031 C1808.6406,36.9844 1808.8125,37.2031 1808.9063,37.6094 C1808.9688,38.0156 1809,38.1406 1809.1406,38.2656 C1809.2813,38.4063 1809.5156,38.5156 1809.7344,38.5156 C1810,38.5156 1810.2656,38.375 1810.4375,38.1563 C1810.5469,38 1810.5781,37.8125 1810.5781,37.3906 L1810.5781,35.9688 C1810.5781,35.5313 1810.5625,35.4063 1810.4688,35.25 C1810.3125,34.9844 1810.0313,34.8438 1809.7344,34.8438 C1809.4375,34.8438 1809.2344,34.9375 1809.0156,35.25 L1808.8438,35.1719 Z " fill="#000000"/><text fill="#000000" font-family="sans-serif" font-size="14" lengthAdjust="spacing" textLength="144" x="1820.5" y="44.3467">ValidadorFrecuencia</text><line style="stroke:#181818;stroke-width:0.5;" x1="1792.5" x2="1966.5" y1="55.5" y2="55.5"/><line style="stroke:#181818;stroke-width:0.5;" x1="1792.5" x2="1966.5" y1="63.5" y2="63.5"/></g><!--class ValidadorMaximoCaracteres--><g id="elem_ValidadorMaximoCaracteres"><rect codeLine="13" fill="#F1F1F1" height="48" id="ValidadorMaximoCaracteres" rx="2.5" ry="2.5" style="stroke:#181818;stroke-width:0.5;" width="232" x="640.5" y="23.5"/><ellipse cx="655.5" cy="39.5" fill="#ADD1B2" rx="11" ry="11" style="stroke:#181818;stroke-width:1.0;"/><path d="M657.8438,35.1719 C656.9063,34.7344 656.3125,34.5938 655.4375,34.5938 C652.8125,34.5938 650.8125,36.6719 650.8125,39.3906 L650.8125,40.5156 C650.8125,43.0938 652.9219,44.9844 655.8125,44.9844 C657.0313,44.9844 658.1875,44.6875 658.9375,44.1406 C659.5156,43.7344 659.8438,43.2813 659.8438,42.8906 C659.8438,42.4375 659.4531,42.0469 658.9844,42.0469 C658.7656,42.0469 658.5625,42.125 658.375,42.3125 C657.9219,42.7969 657.9219,42.7969 657.7344,42.8906 C657.3125,43.1563 656.625,43.2813 655.8594,43.2813 C653.8125,43.2813 652.5156,42.1875 652.5156,40.4844 L652.5156,39.3906 C652.5156,37.6094 653.7656,36.2969 655.5,36.2969 C656.0781,36.2969 656.6875,36.4531 657.1563,36.7031 C657.6406,36.9844 657.8125,37.2031 657.9063,37.6094 C657.9688,38.0156 658,38.1406 658.1406,38.2656 C658.2813,38.4063 658.5156,38.5156 658.7344,38.5156 C659,38.5156 659.2656,38.375 659.4375,38.1563 C659.5469,38 659.5781,37.8125 659.5781,37.3906 L659.5781,35.9688 C659.5781,35.5313 659.5625,35.4063 659.4688,35.25 C659.3125,34.9844 659.0313,34.8438 658.7344,34.8438 C658.4375,34.8438 658.2344,34.9375 658.0156,35.25 L657.8438,35.1719 Z " fill="#000000"/><text fill="#000000" font-family="sans-serif" font-size="14" lengthAdjust="spacing" textLength="200" x="669.5" y="44.3467">ValidadorMaximoCaracteres</text><line style="stroke:#181818;stroke-width:0.5;" x1="641.5" x2="871.5" y1="55.5" y2="55.5"/><line style="stroke:#181818;stroke-width:0.5;" x1="641.5" x2="871.5" y1="63.5" y2="63.5"/></g><!--class ValidadorMinimoCaracteres--><g id="elem_ValidadorMinimoCaracteres"><rect codeLine="14" fill="#F1F1F1" height="48" id="ValidadorMinimoCaracteres" rx="2.5" ry="2.5" style="stroke:#181818;stroke-width:0.5;" width="229" x="908" y="23.5"/><ellipse cx="923" cy="39.5" fill="#ADD1B2" rx="11" ry="11" style="stroke:#181818;stroke-width:1.0;"/><path d="M925.3438,35.1719 C924.4063,34.7344 923.8125,34.5938 922.9375,34.5938 C920.3125,34.5938 918.3125,36.6719 918.3125,39.3906 L918.3125,40.5156 C918.3125,43.0938 920.4219,44.9844 923.3125,44.9844 C924.5313,44.9844 925.6875,44.6875 926.4375,44.1406 C927.0156,43.7344 927.3438,43.2813 927.3438,42.8906 C927.3438,42.4375 926.9531,42.0469 926.4844,42.0469 C926.2656,42.0469 926.0625,42.125 925.875,42.3125 C925.4219,42.7969 925.4219,42.7969 925.2344,42.8906 C924.8125,43.1563 924.125,43.2813 923.3594,43.2813 C921.3125,43.2813 920.0156,42.1875 920.0156,40.4844 L920.0156,39.3906 C920.0156,37.6094 921.2656,36.2969 923,36.2969 C923.5781,36.2969 924.1875,36.4531 924.6563,36.7031 C925.1406,36.9844 925.3125,37.2031 925.4063,37.6094 C925.4688,38.0156 925.5,38.1406 925.6406,38.2656 C925.7813,38.4063 926.0156,38.5156 926.2344,38.5156 C926.5,38.5156 926.7656,38.375 926.9375,38.1563 C927.0469,38 927.0781,37.8125 927.0781,37.3906 L927.0781,35.9688 C927.0781,35.5313 927.0625,35.4063 926.9688,35.25 C926.8125,34.9844 926.5313,34.8438 926.2344,34.8438 C925.9375,34.8438 925.7344,34.9375 925.5156,35.25 L925.3438,35.1719 Z " fill="#000000"/><text fill="#000000" font-family="sans-serif" font-size="14" lengthAdjust="spacing" textLength="197" x="937" y="44.3467">ValidadorMinimoCaracteres</text><line style="stroke:#181818;stroke-width:0.5;" x1="909" x2="1136" y1="55.5" y2="55.5"/><line style="stroke:#181818;stroke-width:0.5;" x1="909" x2="1136" y1="63.5" y2="63.5"/></g><!--class ValidadorNumeros--><g id="elem_ValidadorNumeros"><rect codeLine="15" fill="#F1F1F1" height="48" id="ValidadorNumeros" rx="2.5" ry="2.5" style="stroke:#181818;stroke-width:0.5;" width="162" x="1172.5" y="23.5"/><ellipse cx="1187.5" cy="39.5" fill="#ADD1B2" rx="11" ry="11" style="stroke:#181818;stroke-width:1.0;"/><path d="M1189.8438,35.1719 C1188.9063,34.7344 1188.3125,34.5938 1187.4375,34.5938 C1184.8125,34.5938 1182.8125,36.6719 1182.8125,39.3906 L1182.8125,40.5156 C1182.8125,43.0938 1184.9219,44.9844 1187.8125,44.9844 C1189.0313,44.9844 1190.1875,44.6875 1190.9375,44.1406 C1191.5156,43.7344 1191.8438,43.2813 1191.8438,42.8906 C1191.8438,42.4375 1191.4531,42.0469 1190.9844,42.0469 C1190.7656,42.0469 1190.5625,42.125 1190.375,42.3125 C1189.9219,42.7969 1189.9219,42.7969 1189.7344,42.8906 C1189.3125,43.1563 1188.625,43.2813 1187.8594,43.2813 C1185.8125,43.2813 1184.5156,42.1875 1184.5156,40.4844 L1184.5156,39.3906 C1184.5156,37.6094 1185.7656,36.2969 1187.5,36.2969 C1188.0781,36.2969 1188.6875,36.4531 1189.1563,36.7031 C1189.6406,36.9844 1189.8125,37.2031 1189.9063,37.6094 C1189.9688,38.0156 1190,38.1406 1190.1406,38.2656 C1190.2813,38.4063 1190.5156,38.5156 1190.7344,38.5156 C1191,38.5156 1191.2656,38.375 1191.4375,38.1563 C1191.5469,38 1191.5781,37.8125 1191.5781,37.3906 L1191.5781,35.9688 C1191.5781,35.5313 1191.5625,35.4063 1191.4688,35.25 C1191.3125,34.9844 1191.0313,34.8438 1190.7344,34.8438 C1190.4375,34.8438 1190.2344,34.9375 1190.0156,35.25 L1189.8438,35.1719 Z " fill="#000000"/><text fill="#000000" font-family="sans-serif" font-size="14" lengthAdjust="spacing" textLength="130" x="1201.5" y="44.3467">ValidadorNumeros</text><line style="stroke:#181818;stroke-width:0.5;" x1="1173.5" x2="1333.5" y1="55.5" y2="55.5"/><line style="stroke:#181818;stroke-width:0.5;" x1="1173.5" x2="1333.5" y1="63.5" y2="63.5"/></g><!--class ValidadorRepetidos--><g id="elem_ValidadorRepetidos"><rect codeLine="16" fill="#F1F1F1" height="48" id="ValidadorRepetidos" rx="2.5" ry="2.5" style="stroke:#181818;stroke-width:0.5;" width="173" x="1370" y="23.5"/><ellipse cx="1385" cy="39.5" fill="#ADD1B2" rx="11" ry="11" style="stroke:#181818;stroke-width:1.0;"/><path d="M1387.3438,35.1719 C1386.4063,34.7344 1385.8125,34.5938 1384.9375,34.5938 C1382.3125,34.5938 1380.3125,36.6719 1380.3125,39.3906 L1380.3125,40.5156 C1380.3125,43.0938 1382.4219,44.9844 1385.3125,44.9844 C1386.5313,44.9844 1387.6875,44.6875 1388.4375,44.1406 C1389.0156,43.7344 1389.3438,43.2813 1389.3438,42.8906 C1389.3438,42.4375 1388.9531,42.0469 1388.4844,42.0469 C1388.2656,42.0469 1388.0625,42.125 1387.875,42.3125 C1387.4219,42.7969 1387.4219,42.7969 1387.2344,42.8906 C1386.8125,43.1563 1386.125,43.2813 1385.3594,43.2813 C1383.3125,43.2813 1382.0156,42.1875 1382.0156,40.4844 L1382.0156,39.3906 C1382.0156,37.6094 1383.2656,36.2969 1385,36.2969 C1385.5781,36.2969 1386.1875,36.4531 1386.6563,36.7031 C1387.1406,36.9844 1387.3125,37.2031 1387.4063,37.6094 C1387.4688,38.0156 1387.5,38.1406 1387.6406,38.2656 C1387.7813,38.4063 1388.0156,38.5156 1388.2344,38.5156 C1388.5,38.5156 1388.7656,38.375 1388.9375,38.1563 C1389.0469,38 1389.0781,37.8125 1389.0781,37.3906 L1389.0781,35.9688 C1389.0781,35.5313 1389.0625,35.4063 1388.9688,35.25 C1388.8125,34.9844 1388.5313,34.8438 1388.2344,34.8438 C1387.9375,34.8438 1387.7344,34.9375 1387.5156,35.25 L1387.3438,35.1719 Z " fill="#000000"/><text fill="#000000" font-family="sans-serif" font-size="14" lengthAdjust="spacing" textLength="141" x="1399" y="44.3467">ValidadorRepetidos</text><line style="stroke:#181818;stroke-width:0.5;" x1="1371" x2="1542" y1="55.5" y2="55.5"/><line style="stroke:#181818;stroke-width:0.5;" x1="1371" x2="1542" y1="63.5" y2="63.5"/></g><!--class ValidadorSecuencias--><g id="elem_ValidadorSecuencias"><rect codeLine="17" fill="#F1F1F1" height="48" id="ValidadorSecuencias" rx="2.5" ry="2.5" style="stroke:#181818;stroke-width:0.5;" width="178" x="1578.5" y="23.5"/><ellipse cx="1593.5" cy="39.5" fill="#ADD1B2" rx="11" ry="11" style="stroke:#181818;stroke-width:1.0;"/><path d="M1595.8438,35.1719 C1594.9063,34.7344 1594.3125,34.5938 1593.4375,34.5938 C1590.8125,34.5938 1588.8125,36.6719 1588.8125,39.3906 L1588.8125,40.5156 C1588.8125,43.0938 1590.9219,44.9844 1593.8125,44.9844 C1595.0313,44.9844 1596.1875,44.6875 1596.9375,44.1406 C1597.5156,43.7344 1597.8438,43.2813 1597.8438,42.8906 C1597.8438,42.4375 1597.4531,42.0469 1596.9844,42.0469 C1596.7656,42.0469 1596.5625,42.125 1596.375,42.3125 C1595.9219,42.7969 1595.9219,42.7969 1595.7344,42.8906 C1595.3125,43.1563 1594.625,43.2813 1593.8594,43.2813 C1591.8125,43.2813 1590.5156,42.1875 1590.5156,40.4844 L1590.5156,39.3906 C1590.5156,37.6094 1591.7656,36.2969 1593.5,36.2969 C1594.0781,36.2969 1594.6875,36.4531 1595.1563,36.7031 C1595.6406,36.9844 1595.8125,37.2031 1595.9063,37.6094 C1595.9688,38.0156 1596,38.1406 1596.1406,38.2656 C1596.2813,38.4063 1596.5156,38.5156 1596.7344,38.5156 C1597,38.5156 1597.2656,38.375 1597.4375,38.1563 C1597.5469,38 1597.5781,37.8125 1597.5781,37.3906 L1597.5781,35.9688 C1597.5781,35.5313 1597.5625,35.4063 1597.4688,35.25 C1597.3125,34.9844 1597.0313,34.8438 1596.7344,34.8438 C1596.4375,34.8438 1596.2344,34.9375 1596.0156,35.25 L1595.8438,35.1719 Z " fill="#000000"/><text fill="#000000" font-family="sans-serif" font-size="14" lengthAdjust="spacing" textLength="146" x="1607.5" y="44.3467">ValidadorSecuencias</text><line style="stroke:#181818;stroke-width:0.5;" x1="1579.5" x2="1755.5" y1="55.5" y2="55.5"/><line style="stroke:#181818;stroke-width:0.5;" x1="1579.5" x2="1755.5" y1="63.5" y2="63.5"/></g><!--class Configuracion--><g id="elem_Configuracion"><rect codeLine="19" fill="#F1F1F1" height="80.5938" id="Configuracion" rx="2.5" ry="2.5" style="stroke:#181818;stroke-width:0.5;" width="261" x="1749" y="148"/><ellipse cx="1825.75" cy="164" fill="#ADD1B2" rx="11" ry="11" style="stroke:#181818;stroke-width:1.0;"/><path d="M1828.0938,159.6719 C1827.1563,159.2344 1826.5625,159.0938 1825.6875,159.0938 C1823.0625,159.0938 1821.0625,161.1719 1821.0625,163.8906 L1821.0625,165.0156 C1821.0625,167.5938 1823.1719,169.4844 1826.0625,169.4844 C1827.2813,169.4844 1828.4375,169.1875 1829.1875,168.6406 C1829.7656,168.2344 1830.0938,167.7813 1830.0938,167.3906 C1830.0938,166.9375 1829.7031,166.5469 1829.2344,166.5469 C1829.0156,166.5469 1828.8125,166.625 1828.625,166.8125 C1828.1719,167.2969 1828.1719,167.2969 1827.9844,167.3906 C1827.5625,167.6563 1826.875,167.7813 1826.1094,167.7813 C1824.0625,167.7813 1822.7656,166.6875 1822.7656,164.9844 L1822.7656,163.8906 C1822.7656,162.1094 1824.0156,160.7969 1825.75,160.7969 C1826.3281,160.7969 1826.9375,160.9531 1827.4063,161.2031 C1827.8906,161.4844 1828.0625,161.7031 1828.1563,162.1094 C1828.2188,162.5156 1828.25,162.6406 1828.3906,162.7656 C1828.5313,162.9063 1828.7656,163.0156 1828.9844,163.0156 C1829.25,163.0156 1829.5156,162.875 1829.6875,162.6563 C1829.7969,162.5 1829.8281,162.3125 1829.8281,161.8906 L1829.8281,160.4688 C1829.8281,160.0313 1829.8125,159.9063 1829.7188,159.75 C1829.5625,159.4844 1829.2813,159.3438 1828.9844,159.3438 C1828.6875,159.3438 1828.4844,159.4375 1828.2656,159.75 L1828.0938,159.6719 Z " fill="#000000"/><text fill="#000000" font-family="sans-serif" font-size="14" lengthAdjust="spacing" textLength="99" x="1846.25" y="168.8467">Configuracion</text><line style="stroke:#181818;stroke-width:0.5;" x1="1750" x2="2009" y1="180" y2="180"/><rect fill="none" height="6" style="stroke:#C82930;stroke-width:1.0;" width="6" x="1757" y="190.6484"/><text fill="#000000" font-family="sans-serif" font-size="14" lengthAdjust="spacing" text-decoration="underline" textLength="224" x="1769" y="196.9951">rutaPeoresContrasenias: String</text><rect fill="none" height="6" style="stroke:#C82930;stroke-width:1.0;" width="6" x="1757" y="206.9453"/><text fill="#000000" font-family="sans-serif" font-size="14" lengthAdjust="spacing" text-decoration="underline" textLength="235" x="1769" y="213.292">rutaContraseniasEspaniol: String</text><line style="stroke:#181818;stroke-width:0.5;" x1="1750" x2="2009" y1="220.5938" y2="220.5938"/></g><!--link ValidadorFrecuencia to Configuracion--><g id="link_ValidadorFrecuencia_Configuracion"><path codeLine="24" d="M1879.5,71.765 C1879.5,91.022 1879.5,118.944 1879.5,142.5373 " fill="none" id="ValidadorFrecuencia-to-Configuracion" style="stroke:#181818;stroke-width:1.0;stroke-dasharray:7.0,7.0;"/><polygon fill="#181818" points="1879.5,147.8106,1883.5,138.8106,1879.5,142.8106,1875.5,138.8106,1879.5,147.8106" style="stroke:#181818;stroke-width:1.0;"/></g><!--link ValidadorCaracteresEspeciales to EstrategiaValidacion--><g id="link_ValidadorCaracteresEspeciales_EstrategiaValidacion"><path codeLine="26" d="M558.636,71.554 C579.337,77.256 601.686,83.123 622.5,88 C751.262,118.173 899.674,146.1338 1004,164.6818 " fill="none" id="ValidadorCaracteresEspeciales-to-EstrategiaValidacion" style="stroke:#181818;stroke-width:1.0;stroke-dasharray:7.0,7.0;"/><polygon fill="none" points="1005.456,157.8306,1023.93,168.2062,1003.019,171.6167,1005.456,157.8306" style="stroke:#181818;stroke-width:1.0;"/></g><!--link ValidadorFrecuencia to EstrategiaValidacion--><g id="link_ValidadorFrecuencia_EstrategiaValidacion"><path codeLine="27" d="M1824.61,71.57 C1808.66,77.606 1791.07,83.637 1774.5,88 C1603.68,132.9626 1401.41,160.3014 1271.36,174.6588 " fill="none" id="ValidadorFrecuencia-to-EstrategiaValidacion" style="stroke:#181818;stroke-width:1.0;stroke-dasharray:7.0,7.0;"/><polygon fill="none" points="1271.77,181.656,1251.13,176.8523,1270.26,167.7376,1271.77,181.656" style="stroke:#181818;stroke-width:1.0;"/></g><!--link ValidadorMaximoCaracteres to EstrategiaValidacion--><g id="link_ValidadorMaximoCaracteres_EstrategiaValidacion"><path codeLine="28" d="M819.842,71.609 C877.839,92.768 964.775,124.485 1033.05,149.3918 " fill="none" id="ValidadorMaximoCaracteres-to-EstrategiaValidacion" style="stroke:#181818;stroke-width:1.0;stroke-dasharray:7.0,7.0;"/><polygon fill="none" points="1035.83,142.9559,1052.22,156.3867,1031.03,156.108,1035.83,142.9559" style="stroke:#181818;stroke-width:1.0;"/></g><!--link ValidadorMinimoCaracteres to EstrategiaValidacion--><g id="link_ValidadorMinimoCaracteres_EstrategiaValidacion"><path codeLine="29" d="M1041.75,71.765 C1057.26,90.513 1079.57,117.475 1098.75,140.6598 " fill="none" id="ValidadorMinimoCaracteres-to-EstrategiaValidacion" style="stroke:#181818;stroke-width:1.0;stroke-dasharray:7.0,7.0;"/><polygon fill="none" points="1104.36,136.4581,1111.71,156.33,1093.57,145.3824,1104.36,136.4581" style="stroke:#181818;stroke-width:1.0;"/></g><!--link ValidadorNumeros to EstrategiaValidacion--><g id="link_ValidadorNumeros_EstrategiaValidacion"><path codeLine="30" d="M1234.08,71.765 C1218.44,90.513 1195.94,117.475 1176.59,140.6598 " fill="none" id="ValidadorNumeros-to-EstrategiaValidacion" style="stroke:#181818;stroke-width:1.0;stroke-dasharray:7.0,7.0;"/><polygon fill="none" points="1181.7,145.4598,1163.51,156.33,1170.95,136.4895,1181.7,145.4598" style="stroke:#181818;stroke-width:1.0;"/></g><!--link ValidadorRepetidos to EstrategiaValidacion--><g id="link_ValidadorRepetidos_EstrategiaValidacion"><path codeLine="31" d="M1403.47,71.609 C1355.63,92.451 1284.29,123.536 1227.54,148.2672 " fill="none" id="ValidadorRepetidos-to-EstrategiaValidacion" style="stroke:#181818;stroke-width:1.0;stroke-dasharray:7.0,7.0;"/><polygon fill="none" points="1230.04,154.8146,1208.9,156.3867,1224.44,141.9801,1230.04,154.8146" style="stroke:#181818;stroke-width:1.0;"/></g><!--link ValidadorSecuencias to EstrategiaValidacion--><g id="link_ValidadorSecuencias_EstrategiaValidacion"><path codeLine="32" d="M1609.07,71.541 C1593.42,77.306 1576.43,83.206 1560.5,88 C1464.7,116.833 1354.63,142.495 1270.8,160.5337 " fill="none" id="ValidadorSecuencias-to-EstrategiaValidacion" style="stroke:#181818;stroke-width:1.0;stroke-dasharray:7.0,7.0;"/><polygon fill="none" points="1272.18,167.396,1251.16,164.7228,1269.26,153.7041,1272.18,167.396" style="stroke:#181818;stroke-width:1.0;"/></g><!--link ValidadorContrasenias to EstrategiaValidacion--><g id="link_ValidadorContrasenias_EstrategiaValidacion"><path codeLine="34" d="M318.426,84.864 C324.181,85.963 329.887,87.014 335.5,88 C576.608,130.3701 861.607,161.205 1018.67,176.5465 " fill="none" id="ValidadorContrasenias-to-EstrategiaValidacion" style="stroke:#181818;stroke-width:1.0;"/><polygon fill="#181818" points="1023.74,177.0408,1015.1711,172.1854,1018.7636,176.5551,1014.394,180.1476,1023.74,177.0408" style="stroke:#181818;stroke-width:1.0;"/><text fill="#000000" font-family="sans-serif" font-size="13" lengthAdjust="spacing" textLength="7" x="1008.8616" y="172.8284">*</text></g><!--SRC=[ZLFBQiCm4BphAqHEVU1yG0Y-bFJKXj90xukyCGkE5BGo1DpyUvSuiLrPJQM33pEpe_KCCWqmwozeg8BA-HTdWmT6Iy2Tqd8AP442reAiz1jnM6y6f9ypv6nv4Ly-pyWz_h0BdcojpMZwgCvAaGtezs1GfvowF1CJBGuUZDWYR_Y8Xg11ZZMl7asBLiYOUOSJ7TpeCUF9tkMtxG6zcy6VUCH0rPpOtHRXsuz8y7kgMp-9eEWuG21prhuDy85EBfxsiz9zD0dnL2PvW2NN3789Bn69NYxBtrjCPAbqPU2xJ3RuX_s_whY5h9cecPoPQrivqg717F7OwXsrIhurNHJbuccH7Fa1]--></g></svg>